<svg width="532" height="220" viewBox="0 0 532 220" fill="none" xmlns="http://www.w3.org/2000/svg">
<path d="M0 141.5L87 0H125.5V133.5H152V170.5H125.5V220H84.5V170.5H0V141.5Z" fill="#285FD6"/>
<path d="M91 56L45 134H91V56Z" fill="#2337B7"/>
<path d="M91 112L79 134H91V112Z" fill="white"/>
<path d="M125 134.11V0H141.891H158.782V134.11H185V170.274H158.782V220H125L125.504 170.274H151.218L151.723 134.11H125Z" fill="#2438B5"/>
<path d="M326.378 98.7618C329.021 35.6889 283.888 6.92421 262.172 0.944237C356.12 -4.24869 375.948 110.092 348.567 168.161C321.185 226.23 287.665 219.528 258.867 219.528C286 214 292.386 204.421 300.412 196.015C306.077 186.481 326.378 179.019 326.378 98.7618Z" fill="#2438B5"/>
<path d="M331.571 110C331.571 170.751 295.85 220 251.785 220C207.721 220 172 170.751 172 110C172 49.2487 207.721 0 251.785 0C295.85 0 331.571 49.2487 331.571 110Z" fill="#285FD6"/>
<path d="M346.891 141.5L433.891 0H472.391V133.5H498.891V170.5H472.391V220H431.391V170.5H346.891V141.5Z" fill="#285FD6"/>
<path d="M437.891 56L391.891 134H437.891V56Z" fill="#2337B7"/>
<path d="M437.891 112L425.891 134H437.891V112Z" fill="white"/>
<path d="M471.891 134.11V0H488.782H505.673V134.11H531.891V170.274H505.673V220H471.891L472.396 170.274H498.11L498.614 134.11H471.891Z" fill="#2438B5"/>
<ellipse cx="252" cy="109.5" rx="40" ry="68.5" fill="white"/>
<path fill-rule="evenodd" clip-rule="evenodd" d="M267 45.9792C252.341 56.141 242 80.7525 242 109.5C242 138.248 252.341 162.859 267 173.021C262.368 176.232 257.305 178 252 178C229.909 178 212 147.332 212 109.5C212 71.6685 229.909 41 252 41C257.305 41 262.368 42.7682 267 45.9792Z" fill="#2337B7"/>
</svg>
