<svg width="502" height="512" viewBox="0 0 502 512" fill="none" xmlns="http://www.w3.org/2000/svg">
<path d="M220.2 292.1C253.2 292.1 283.7 282.8 308.1 267C327 254.9 351.6 256.9 368.2 272C414.3 313.8 440.5 373.1 440.4 435.4V462.1C440.4 489.7 418 512 390.4 512H50.0002C22.4002 512 0.000160155 489.7 0.000160155 462.1V435.4C-0.19984 373.2 26.0002 313.8 72.1002 272.1C88.7002 257 113.4 255 132.2 267.1C156.7 282.8 187.2 292.1 220.2 292.1Z" fill="#0077CC"/>
<path d="M220.2 247.6C288.573 247.6 344 192.173 344 123.8C344 55.4272 288.573 0 220.2 0C151.828 0 96.4004 55.4272 96.4004 123.8C96.4004 192.173 151.828 247.6 220.2 247.6Z" fill="#41A5EE"/>
<path d="M483.1 194.4H444.9V156.2C444.9 145.8 436.5 137.3 426 137.3C415.6 137.3 407.1 145.8 407.1 156.2V194.4H368.8C358.4 194.4 350 202.9 350 213.3C350 223.7 358.5 232.2 368.9 232.2H407.1V270.4C407.1 280.8 415.5 289.3 426 289.3C436.4 289.3 444.9 280.8 444.9 270.4V232.2H483.1C493.5 232.2 502 223.7 502 213.3C502 202.9 493.5 194.4 483.1 194.4Z" fill="#0077CC"/>
</svg>
