<svg width="360" height="448" viewBox="0 0 360 448" fill="none" xmlns="http://www.w3.org/2000/svg">
<path d="M172.32 187.936C224.217 187.936 266.288 145.865 266.288 93.968C266.288 42.0709 224.217 0 172.32 0C120.423 0 78.3521 42.0709 78.3521 93.968C78.3521 145.865 120.423 187.936 172.32 187.936Z" fill="url(#paint0_linear_72_3)"/>
<path d="M66.72 448H234.56L216.48 429.92C207.489 420.889 202.442 408.664 202.442 395.92C202.442 383.176 207.489 370.951 216.48 361.92C225.397 352.996 237.478 347.955 250.094 347.895C262.71 347.835 274.838 352.761 283.84 361.6L308.96 336.64C316.16 329.44 324.96 324.96 334.4 323.36C322.468 289.925 300.486 260.999 271.469 240.547C242.453 220.095 207.82 209.118 172.32 209.12C77.28 209.12 0 286.4 0 381.28C0 418.08 29.92 448 66.72 448Z" fill="url(#paint1_linear_72_3)"/>
<path d="M283.92 406.832L261.712 384.624C260.236 383.096 258.471 381.877 256.519 381.038C254.567 380.2 252.467 379.758 250.343 379.74C248.218 379.722 246.111 380.126 244.145 380.931C242.179 381.735 240.392 382.923 238.89 384.426C237.388 385.928 236.2 387.714 235.395 389.681C234.591 391.647 234.186 393.754 234.204 395.878C234.223 398.003 234.664 400.102 235.503 402.054C236.341 404.007 237.56 405.772 239.088 407.248L272.608 440.768C275.609 443.768 279.678 445.453 283.92 445.453C288.163 445.453 292.232 443.768 295.232 440.768L354.16 381.856C355.688 380.38 356.907 378.615 357.746 376.663C358.584 374.71 359.026 372.611 359.044 370.486C359.063 368.362 358.658 366.255 357.853 364.289C357.049 362.322 355.861 360.536 354.359 359.034C352.856 357.531 351.07 356.343 349.103 355.539C347.137 354.734 345.03 354.33 342.906 354.348C340.781 354.366 338.682 354.808 336.73 355.646C334.778 356.485 333.012 357.704 331.536 359.232L283.92 406.832Z" fill="url(#paint2_linear_72_3)"/>
<defs>
<linearGradient id="paint0_linear_72_3" x1="119.692" y1="-3.2576" x2="221.584" y2="148.63" gradientUnits="userSpaceOnUse">
<stop stop-color="#41A5EE"/>
<stop offset="1" stop-color="#0077CC"/>
</linearGradient>
<linearGradient id="paint1_linear_72_3" x1="73.5583" y1="204.979" x2="182.656" y2="432.639" gradientUnits="userSpaceOnUse">
<stop stop-color="#41A5EE"/>
<stop offset="1" stop-color="#0077CC"/>
</linearGradient>
<linearGradient id="paint2_linear_72_3" x1="261.665" y1="352.768" x2="303.828" y2="438.892" gradientUnits="userSpaceOnUse">
<stop stop-color="#41A5EE"/>
<stop offset="1" stop-color="#0077CC"/>
</linearGradient>
</defs>
</svg>
