<svg width="512" height="430" viewBox="0 0 512 430" fill="none" xmlns="http://www.w3.org/2000/svg">
<path d="M126 170C79.131 170 41 131.869 41 85C41 38.131 79.131 0 126 0C172.869 0 211 38.131 211 85C211 131.869 172.869 170 126 170ZM386 170C339.131 170 301 131.869 301 85C301 38.131 339.131 0 386 0C432.869 0 471 38.131 471 85C471 131.869 432.869 170 386 170ZM407 242.5C407 223.047 414.716 205.373 427.23 192.338C414.076 197.412 400.098 200.009 386 200C351.22 200 319.998 184.478 298.893 160H214.208C248.715 186.53 271 228.208 271 275V430H416.001V350C416.001 341.716 422.717 335 431.001 335C439.285 335 446.001 341.716 446.001 350V430H486C494.284 430 501 423.284 501 415V315H479.5C439.523 315 407 282.477 407 242.5ZM501 314.835V314.813C500.915 314.82 500.921 314.827 501 314.835Z" fill="url(#paint0_linear_43_8)"/>
<path d="M497 285H479.5C456.065 285 437 265.935 437 242.5C437 219.065 456.065 200 479.5 200C497.42 200 512 214.58 512 232.5V270C512 278.284 505.284 285 497 285ZM190.731 180.001C172.28 192.613 149.987 200 126 200C111.903 200.01 97.9258 197.413 84.773 192.341C97.285 205.375 105 223.048 105 242.5C105 282.477 72.477 315 32.5 315H11V415C11 423.284 17.716 430 26 430H66.001V350C66.001 341.716 72.717 335 81.001 335C89.285 335 96.001 341.716 96.001 350V430H241V275C241 235.577 221.055 200.729 190.731 180.001Z" fill="url(#paint1_linear_43_8)"/>
<path d="M11 314.813V314.845C11.115 314.834 11.124 314.823 11 314.813ZM0 270V232.5C0 214.58 14.58 200 32.5 200C55.935 200 75 219.065 75 242.5C75 265.935 55.935 285 32.5 285H15C6.716 285 0 278.284 0 270Z" fill="url(#paint2_linear_43_8)"/>
<defs>
<linearGradient id="paint0_linear_43_8" x1="141.176" y1="4" x2="367.983" y2="365.684" gradientUnits="userSpaceOnUse">
<stop stop-color="#41A5EE"/>
<stop offset="1" stop-color="#0077CC"/>
</linearGradient>
<linearGradient id="paint1_linear_43_8" x1="120.105" y1="182.327" x2="208.294" y2="445.777" gradientUnits="userSpaceOnUse">
<stop stop-color="#41A5EE"/>
<stop offset="1" stop-color="#0077CC"/>
</linearGradient>
<linearGradient id="paint2_linear_43_8" x1="16.333" y1="201.068" x2="83.6015" y2="266.554" gradientUnits="userSpaceOnUse">
<stop stop-color="#41A5EE"/>
<stop offset="1" stop-color="#0077CC"/>
</linearGradient>
</defs>
</svg>
