<svg width="512" height="512" viewBox="0 0 512 512" fill="none" xmlns="http://www.w3.org/2000/svg">
<path d="M319.997 277.33C308.2 277.33 298.665 286.889 298.665 298.662V383.997C298.665 395.751 289.106 405.329 277.329 405.329H213.33V85.3322C213.33 67.1133 201.725 50.8365 184.275 44.7776L177.959 42.6646H277.329C289.106 42.6646 298.665 52.2425 298.665 64.0004V128C298.665 139.773 308.2 149.332 319.997 149.332C331.794 149.332 341.329 139.773 341.329 128V64.0004C341.329 28.7157 312.614 0.00099999 277.329 0.00099999H47.9995C47.1875 0.00099999 46.5075 0.363996 45.7186 0.469995C44.6906 0.383996 43.7106 0 42.6676 0C19.1368 0.00099999 0 19.1348 0 42.6656V426.662C0 444.881 11.6049 461.158 29.0547 467.216L157.438 510.012C161.79 511.355 166.118 511.996 170.665 511.996C194.196 511.996 213.329 492.859 213.329 469.328V447.997H277.328C312.613 447.997 341.328 419.282 341.328 383.997V298.662C341.328 286.889 331.793 277.33 319.996 277.33H319.997Z" fill="white"/>
<path d="M505.745 198.249L420.41 112.918C417.427 109.932 413.626 107.899 409.488 107.074C405.349 106.249 401.059 106.671 397.16 108.285C389.203 111.594 383.996 119.379 383.996 128V191.999H298.665C286.888 191.999 277.329 201.554 277.329 213.331C277.329 225.108 286.888 234.663 298.665 234.663H383.996V298.662C383.996 307.283 389.203 315.068 397.16 318.377C401.059 319.991 405.349 320.412 409.487 319.588C413.626 318.764 417.427 316.731 420.41 313.747L505.745 228.413C514.085 220.073 514.085 206.589 505.745 198.249Z" fill="white"/>
</svg>
