<svg width="513" height="492" viewBox="0 0 513 492" fill="none" xmlns="http://www.w3.org/2000/svg">
<path d="M216.094 254.851C286.44 254.851 343.468 197.823 343.468 127.476C343.468 57.1299 286.441 0.101349 216.094 0.101349C145.747 0.101349 88.719 57.1291 88.719 127.476C88.719 197.822 145.747 254.851 216.094 254.851ZM277.745 177.719C271.95 196.878 247.129 211.28 217.381 211.28C187.632 211.28 162.811 196.878 157.017 177.719H277.745ZM509.724 392.877L393.186 490C389.796 492.825 384.47 492.583 381.35 489.463L323.328 431.433C319.912 428.016 319.912 422.426 323.329 419.009L335.75 406.588C339.166 403.173 344.757 403.172 348.172 406.588L389.186 447.594L487.233 365.888C490.945 362.796 496.512 363.301 499.605 367.013L510.85 380.505C513.942 384.216 513.436 389.784 509.724 392.877ZM309.661 445.098L331.76 467.2C301.6 471.447 263.583 474.462 216.095 474.462C93.2793 474.462 33.177 454.394 11.1426 444.59C5.45707 442.06 0.875 434.828 0.875 428.605V386.618C0.875 323.701 48.7788 271.505 109.905 264.513C111.762 264.301 114.517 265.096 116.031 266.192C144.214 286.596 178.719 298.773 216.094 298.773C253.469 298.773 287.974 286.595 316.157 266.192C317.672 265.096 320.426 264.301 322.283 264.513C383.409 271.504 431.314 323.7 431.314 386.618V387.328L390.369 421.446L361.837 392.923C356.526 387.613 349.466 384.687 341.96 384.687C334.454 384.687 327.394 387.613 322.083 392.923L309.661 405.345C298.697 416.308 298.697 434.135 309.661 445.098Z" fill="url(#paint0_linear_50_16)"/>
<defs>
<linearGradient id="paint0_linear_50_16" x1="113.5" y1="-8.4245" x2="375.968" y2="398.842" gradientUnits="userSpaceOnUse">
<stop stop-color="#41A5EE"/>
<stop offset="1" stop-color="#0077CC"/>
</linearGradient>
</defs>
</svg>
