<svg width="400" height="347" viewBox="0 0 400 347" fill="none" xmlns="http://www.w3.org/2000/svg">
<path d="M265.137 346.611H30.825C13.7846 346.611 0 332.8 0 315.786V304.837C0 234.26 57.2127 177.073 127.764 177.073H168.199C238.776 177.073 295.962 234.286 295.962 304.837V315.786C295.989 332.8 282.178 346.611 265.137 346.611Z" fill="#D41616"/>
<path d="M147.981 147.981C188.845 147.981 221.972 114.854 221.972 73.9906C221.972 33.1267 188.845 0 147.981 0C107.117 0 73.9905 33.1267 73.9905 73.9906C73.9905 114.854 107.117 147.981 147.981 147.981Z" fill="#D41616"/>
<path d="M365.699 130.521L399.097 97.1225L368.561 66.5601L335.163 99.9582L301.765 66.5601L271.229 97.1225L304.627 130.521L271.229 163.893L301.765 194.455L335.163 161.057L368.561 194.455L399.097 163.893L365.699 130.521Z" fill="#D41616"/>
</svg>
