<svg width="473" height="319" viewBox="0 0 473 319" fill="none" xmlns="http://www.w3.org/2000/svg">
<path d="M96.7891 318.703H41.6871C40.7191 318.703 39.9341 317.919 39.9341 316.951V315.987C39.9341 315.019 40.7191 314.234 41.6871 314.234H96.7881C97.7561 314.234 98.5411 315.019 98.5411 315.987V316.951C98.5421 317.919 97.7571 318.703 96.7891 318.703Z" fill="#ADBEC4"/>
<path d="M445.943 318.703H430.867C429.899 318.703 429.114 317.919 429.114 316.951V315.987C429.114 315.019 429.899 314.234 430.867 314.234H445.943C446.911 314.234 447.696 315.019 447.696 315.987V316.951C447.695 317.919 446.911 318.703 445.943 318.703Z" fill="#ADBEC4"/>
<path d="M200.484 318.703H145.382C144.414 318.703 143.629 317.919 143.629 316.951V315.987C143.629 315.019 144.414 314.234 145.382 314.234H200.484C201.452 314.234 202.237 315.019 202.237 315.987V316.951C202.237 317.919 201.453 318.703 200.484 318.703Z" fill="#ADBEC4"/>
<path d="M281.392 318.703H226.291C225.323 318.703 224.538 317.919 224.538 316.951V315.987C224.538 315.019 225.323 314.234 226.291 314.234H281.392C282.36 314.234 283.145 315.019 283.145 315.987V316.951C283.145 317.919 282.36 318.703 281.392 318.703Z" fill="#ADBEC4"/>
<path d="M380.481 318.703H305.367C304.399 318.703 303.614 317.919 303.614 316.951V315.987C303.614 315.019 304.399 314.234 305.367 314.234H380.481C381.449 314.234 382.234 315.019 382.234 315.987V316.951C382.234 317.919 381.449 318.703 380.481 318.703Z" fill="#ADBEC4"/>
<path d="M115.258 68.4305C115.258 68.4305 109.438 64.4715 100.926 67.5205C92.4141 70.5705 90.5021 82.0335 92.5991 91.3365C94.6961 100.64 82.9771 132.402 82.9771 132.402C82.9771 132.402 89.068 140.967 110.355 137.689C110.355 137.689 126.228 108.844 125.05 88.1345C123.872 67.4255 115.258 68.4305 115.258 68.4305Z" fill="#0E3944"/>
<path d="M121.978 104.214C129.978 101.656 134.874 108.318 139.458 120.716C144.042 133.114 145.584 134.357 145.584 134.357L163.277 145.725L161.806 152.35C161.806 152.35 144.967 145.758 140.896 141.564C136.825 137.371 125.113 116.128 125.113 116.128L121.978 104.214Z" fill="#EF6E4B"/>
<path d="M82.986 184.31C82.986 184.31 79.515 201.888 80.087 228.349C80.087 228.349 66.409 248.52 77.697 306.068H83.618C83.618 306.068 88.455 257.104 92.156 243.837C95.857 230.57 109.523 226.499 110.263 186.159L82.986 184.31Z" fill="#FF8B66"/>
<path d="M55.924 236C52.483 224.661 43.64 205.67 20.955 179.928C20.955 179.928 19.602 179.231 17.773 180.349C15.842 181.529 15.842 182.915 15.842 182.915C15.842 182.915 27.217 207.705 34.471 225.868C36.913 231.983 42.821 236 49.405 236H55.924Z" fill="#FF8B66"/>
<path d="M97.226 257.924C97.226 257.924 97.304 266.385 91.753 266.529C83.915 266.74 83.626 258.201 74.744 258.479C65.862 258.756 47.543 260.977 41.714 247.099C38.705 239.927 42.824 230.723 33.11 223.784C23.395 216.845 28.114 209.073 33.11 204.91C38.106 200.758 30.956 196.207 36.163 194.086C37.406 193.586 38.628 193.641 39.76 194.018C40.426 194.251 41.048 194.574 41.647 194.974C44.4 196.806 46.332 199.991 46.332 199.991C61.043 159.7 87.234 154.383 87.234 154.383L113.136 163.32C113.757 226.005 97.226 257.924 97.226 257.924Z" fill="#164353"/>
<path d="M121.978 104.214C121.978 104.214 115.935 106.254 107.339 104.949C98.7429 103.644 95.9489 98.2465 89.9069 101.721C80.8359 106.936 85.0809 124.885 87.3589 134.218C88.2079 137.698 89.2839 146.84 87.2359 154.385C87.2359 154.385 99.3139 163.783 113.138 163.316L120.68 146.913C120.68 146.913 137.081 127.286 121.978 104.214Z" fill="#CFD8DC"/>
<path d="M106.63 89.1585C106.63 89.1585 107.635 97.6495 104.494 105.375C104.494 105.375 108.979 111.996 113.259 107.639C113.259 107.639 113.65 99.8565 118.458 91.0525C121.677 85.1565 106.63 89.1585 106.63 89.1585Z" fill="#EF6E4B"/>
<path d="M99.757 89.4475C99.757 89.4475 95.974 87.0545 96.401 90.7465C96.896 95.0245 101.069 95.8585 101.513 94.3625C101.957 92.8675 99.757 89.4475 99.757 89.4475Z" fill="#FF8B66"/>
<path d="M121.459 84.8165C121.459 84.8165 123.86 81.0385 125.049 84.5605C126.426 88.6415 123.007 91.1745 121.967 90.0115C120.928 88.8485 121.459 84.8165 121.459 84.8165Z" fill="#FF8B66"/>
<path d="M113.648 102.235C106.787 103.771 101.911 100.156 98.901 86.7145C97.348 79.7805 99.924 74.7375 107.609 73.0175C115.295 71.2965 119.483 74.8245 121.036 81.7585C124.27 96.2015 120.736 100.648 113.648 102.235Z" fill="#FF8B66"/>
<path d="M119.837 87.0605C120.112 87.7235 119.663 88.5395 118.834 88.8825C118.005 89.2255 117.11 88.9675 116.836 88.3045C116.561 87.6415 117.01 86.8255 117.839 86.4825C118.667 86.1395 119.562 86.3985 119.837 87.0605Z" fill="#DB614D"/>
<path d="M105.808 90.5965C105.919 91.3055 105.29 91.9925 104.404 92.1305C103.518 92.2695 102.709 91.8075 102.598 91.0985C102.487 90.3895 103.116 89.7025 104.002 89.5645C104.889 89.4255 105.697 89.8875 105.808 90.5965Z" fill="#DB614D"/>
<path d="M115.059 80.7975C114.992 80.7975 114.925 80.7785 114.864 80.7385C113.691 79.9555 112.029 80.3715 112.011 80.3755C111.82 80.4255 111.631 80.3105 111.583 80.1225C111.535 79.9345 111.648 79.7425 111.836 79.6945C111.917 79.6745 113.823 79.1975 115.255 80.1545C115.417 80.2625 115.46 80.4805 115.352 80.6415C115.284 80.7425 115.173 80.7975 115.059 80.7975Z" fill="#0E3944"/>
<path d="M102.14 83.6905C102.079 83.6905 102.016 83.6745 101.96 83.6405C101.794 83.5405 101.74 83.3255 101.84 83.1585C102.727 81.6835 104.655 81.3005 104.737 81.2845C104.924 81.2545 105.111 81.3725 105.147 81.5635C105.183 81.7535 105.059 81.9375 104.868 81.9745C104.851 81.9785 103.165 82.3175 102.441 83.5205C102.376 83.6295 102.259 83.6905 102.14 83.6905Z" fill="#0E3944"/>
<path d="M115.36 84.5625C115.55 85.4145 115.321 86.1915 114.848 86.2965C114.375 86.4025 113.836 85.7975 113.645 84.9455C113.454 84.0935 113.683 83.3165 114.157 83.2105C114.63 83.1055 115.169 83.7095 115.36 84.5625Z" fill="#1A4850"/>
<path d="M105.827 86.6135C106.018 87.4655 105.789 88.2425 105.315 88.3475C104.842 88.4535 104.303 87.8485 104.112 86.9965C103.921 86.1445 104.15 85.3675 104.624 85.2615C105.098 85.1565 105.636 85.7615 105.827 86.6135Z" fill="#1A4850"/>
<path d="M108.909 94.6835C108.909 94.6835 113.316 94.3245 115.258 92.6845C115.258 92.6845 114.723 96.1275 112.326 96.3655C109.928 96.6055 108.909 94.6835 108.909 94.6835Z" fill="#1A4850"/>
<path d="M112.958 84.6555C112.958 84.6555 113.113 82.4165 113.971 82.3825C114.829 82.3485 115.857 84.0065 115.857 84.0065L116.93 83.0885L115.748 83.5205C115.748 83.5205 114.694 81.7875 113.878 81.9665C112.717 82.2205 112.958 84.6555 112.958 84.6555Z" fill="#1A4850"/>
<path d="M106.353 86.4045C106.353 86.4045 105.258 84.4455 104.467 84.7805C103.676 85.1155 103.454 87.0535 103.454 87.0535L102.091 86.6815L103.345 86.5675C103.345 86.5675 103.56 84.5505 104.374 84.3645C105.534 84.0985 106.353 86.4045 106.353 86.4045Z" fill="#1A4850"/>
<path d="M111.132 90.7085L110.779 90.0385C111.35 89.7375 111.399 89.3305 111.339 89.0445C111.255 88.6385 110.925 88.3165 110.686 88.2975C110.549 88.2905 110.431 88.4075 110.339 88.6515L109.629 88.3865C109.933 87.5695 110.508 87.5245 110.744 87.5415C111.347 87.5875 111.934 88.1795 112.083 88.8895C112.236 89.6335 111.881 90.3135 111.132 90.7085Z" fill="#DB614D"/>
<path d="M100.3 91.8675C100.3 91.8675 98.184 84.0815 99.44 78.5755C99.44 78.5755 105.409 70.2635 116.931 74.3735C116.931 74.3735 120.347 79.8755 122.04 87.5755C122.04 87.5755 122.47 84.8095 121.324 78.6495C120.178 72.4895 114.713 68.6625 107.218 69.8945C99.724 71.1265 91.704 78.5825 100.3 91.8675Z" fill="#0E3944"/>
<path d="M112.38 72.6445C112.38 72.6445 112.837 74.6765 110.86 79.9095C110.86 79.9095 109.438 78.4235 107.773 79.9095C106.108 81.3955 102.726 80.8995 101.572 81.7025C100.418 82.5055 100.418 84.3415 100.418 84.3415C100.418 84.3415 99.419 82.0555 100.418 79.3135C100.418 79.3135 98.171 82.1695 98.469 85.6965C98.469 85.6965 95.422 85.2045 95.56 80.1765C95.699 75.1495 102.844 67.0165 110.86 67.5445C118.876 68.0715 120.784 80.7635 120.784 80.7635C120.784 80.7635 120.053 80.1885 118.909 80.4445C118.909 80.4445 118.732 77.7565 116.93 74.3705C116.93 74.3705 117.76 76.8145 116.93 79.4515C116.93 79.4515 114.697 78.2805 112.937 78.6465C112.937 78.6485 114.024 76.5225 112.38 72.6445Z" fill="#0E3944"/>
<path d="M87.8721 103.323C91.7731 100.247 94.8111 104.16 95.5551 109.57C96.3001 114.981 89.2451 146.9 83.8051 145.724C81.7051 145.27 80.8491 136.909 80.8491 136.909C80.8491 136.909 82.9771 127.934 84.3541 114.426C84.9871 108.218 85.8381 104.927 87.8721 103.323Z" fill="#FF8B66"/>
<path d="M76.521 141.214C71.269 136.208 61.852 119.603 59.46 111.144L63.446 109.541C63.446 109.541 75.448 126.711 80.919 131.04C86.39 135.37 88.314 140.191 85.871 144.32C83.428 148.449 77.627 142.267 76.521 141.214Z" fill="#FF8B66"/>
<path d="M61.0971 100.067C60.8221 105.497 65.2471 106.784 63.2841 110.952C62.8791 111.812 62.2621 112.269 61.6211 112.496C60.4051 112.926 59.0541 112.52 58.1471 111.603C56.0431 109.477 52.7911 107.224 51.0601 106.236C49.0921 105.1 50.2071 104.791 50.2071 104.791C50.0161 104.701 49.8311 104.626 49.6451 104.551C48.2411 103.963 47.1181 103.741 48.1361 103.116C49.2821 102.404 53.3441 103.888 53.3441 103.888C48.0571 100.366 46.6221 101.225 47.5871 100.477C48.9041 99.4525 53.9311 101.808 54.0811 101.879C51.2871 99.2375 49.2621 98.6385 50.3701 98.2405C51.4931 97.8365 57.0201 101.84 59.0371 103.342C59.4921 103.679 59.7701 103.896 59.7701 103.896C59.7021 99.4585 61.0971 100.067 61.0971 100.067Z" fill="#FF8B66"/>
<path d="M59.0391 103.344C59.4941 103.681 59.7721 103.898 59.7721 103.898C59.7721 103.898 58.8261 105.489 60.0511 107.551C60.0511 107.551 57.8011 106.074 59.0391 103.344Z" fill="#EF6E4B"/>
<path d="M54.403 106.462C53.935 106.205 51.268 104.703 50.207 104.792C50.016 104.702 49.831 104.627 49.645 104.552C50.358 103.611 53.873 106.077 54.403 106.462Z" fill="#EF6E4B"/>
<path d="M75.3669 187.036C75.3669 187.626 74.8889 188.103 74.2999 188.103C73.7109 188.103 73.2329 187.625 73.2329 187.036C73.2329 186.447 73.7109 185.969 74.2999 185.969C74.8889 185.969 75.3669 186.446 75.3669 187.036Z" fill="#6097B2"/>
<path d="M94.4069 194.382C94.4069 194.972 93.9289 195.448 93.3399 195.448C92.7509 195.448 92.2729 194.971 92.2729 194.382C92.2729 193.793 92.7509 193.315 93.3399 193.315C93.9289 193.315 94.4069 193.793 94.4069 194.382Z" fill="#6097B2"/>
<path d="M110.631 198.32C110.631 198.909 110.153 199.387 109.564 199.387C108.975 199.387 108.497 198.909 108.497 198.32C108.497 197.731 108.975 197.253 109.564 197.253C110.153 197.253 110.631 197.731 110.631 198.32Z" fill="#6097B2"/>
<path d="M85.7028 173.1C85.7028 173.69 85.2248 174.168 84.6358 174.168C84.0468 174.168 83.5688 173.689 83.5688 173.1C83.5688 172.511 84.0468 172.034 84.6358 172.034C85.2248 172.034 85.7028 172.511 85.7028 173.1Z" fill="#6097B2"/>
<path d="M88.2298 184.309C88.8191 184.309 89.2968 183.832 89.2968 183.242C89.2968 182.653 88.8191 182.175 88.2298 182.175C87.6405 182.175 87.1628 182.653 87.1628 183.242C87.1628 183.832 87.6405 184.309 88.2298 184.309Z" fill="#6097B2"/>
<path d="M106.18 189.022C106.18 189.612 105.702 190.09 105.113 190.09C104.524 190.09 104.046 189.611 104.046 189.022C104.046 188.433 104.524 187.956 105.113 187.956C105.702 187.956 106.18 188.432 106.18 189.022Z" fill="#6097B2"/>
<path d="M108.497 171.529C108.497 172.118 108.019 172.595 107.43 172.595C106.841 172.595 106.363 172.118 106.363 171.529C106.363 170.939 106.841 170.461 107.43 170.461C108.019 170.461 108.497 170.94 108.497 171.529Z" fill="#6097B2"/>
<path d="M96.3668 168.955C96.9561 168.955 97.4338 168.478 97.4338 167.888C97.4338 167.299 96.9561 166.821 96.3668 166.821C95.7775 166.821 95.2998 167.299 95.2998 167.888C95.2998 168.478 95.7775 168.955 96.3668 168.955Z" fill="#6097B2"/>
<path d="M65.9228 207.855C65.9228 208.445 65.4448 208.922 64.8558 208.922C64.2668 208.922 63.7888 208.444 63.7888 207.855C63.7888 207.266 64.2668 206.789 64.8558 206.789C65.4448 206.789 65.9228 207.266 65.9228 207.855Z" fill="#6097B2"/>
<path d="M50.7129 203.318C50.7129 203.907 50.2349 204.384 49.6459 204.384C49.0569 204.384 48.5789 203.907 48.5789 203.318C48.5789 202.728 49.0569 202.25 49.6459 202.25C50.2349 202.25 50.7129 202.729 50.7129 203.318Z" fill="#6097B2"/>
<path d="M41.6459 194.974C41.4569 195.263 41.1239 195.451 40.7469 195.451C40.1589 195.451 39.6809 194.973 39.6809 194.384C39.6809 194.251 39.7029 194.129 39.7589 194.018C40.4249 194.251 41.0469 194.574 41.6459 194.974Z" fill="#6097B2"/>
<path d="M70.3048 222.841C70.8941 222.841 71.3718 222.364 71.3718 221.774C71.3718 221.185 70.8941 220.707 70.3048 220.707C69.7155 220.707 69.2378 221.185 69.2378 221.774C69.2378 222.364 69.7155 222.841 70.3048 222.841Z" fill="#6097B2"/>
<path d="M44.0739 236.902C44.0739 237.492 43.5959 237.97 43.0069 237.97C42.4179 237.97 41.9399 237.491 41.9399 236.902C41.9399 236.313 42.4179 235.836 43.0069 235.836C43.5959 235.836 44.0739 236.312 44.0739 236.902Z" fill="#6097B2"/>
<path d="M54.1588 228.799C54.7481 228.799 55.2258 228.322 55.2258 227.732C55.2258 227.143 54.7481 226.665 54.1588 226.665C53.5695 226.665 53.0918 227.143 53.0918 227.732C53.0918 228.322 53.5695 228.799 54.1588 228.799Z" fill="#6097B2"/>
<path d="M37.5499 220.686C38.1392 220.686 38.6169 220.209 38.6169 219.62C38.6169 219.03 38.1392 218.552 37.5499 218.552C36.9606 218.552 36.4829 219.03 36.4829 219.62C36.4829 220.209 36.9606 220.686 37.5499 220.686Z" fill="#6097B2"/>
<path d="M52.0239 251.566C52.0239 252.155 51.5459 252.634 50.9569 252.634C50.3679 252.634 49.8899 252.155 49.8899 251.566C49.8899 250.976 50.3679 250.5 50.9569 250.5C51.5459 250.5 52.0239 250.977 52.0239 251.566Z" fill="#6097B2"/>
<path d="M62.186 195.449C62.186 196.039 61.708 196.517 61.119 196.517C60.529 196.517 60.052 196.038 60.052 195.449C60.052 194.86 60.53 194.383 61.119 194.383C61.708 194.382 62.186 194.859 62.186 195.449Z" fill="#6097B2"/>
<path d="M72.4399 177.474C72.4399 178.064 71.9619 178.541 71.3729 178.541C70.7839 178.541 70.3059 178.063 70.3059 177.474C70.3059 176.885 70.7839 176.407 71.3729 176.407C71.9619 176.407 72.4399 176.885 72.4399 177.474Z" fill="#6097B2"/>
<path d="M84.0449 162.515C84.0449 163.104 83.5669 163.582 82.9779 163.582C82.3879 163.582 81.9109 163.104 81.9109 162.515C81.9109 161.925 82.3889 161.448 82.9779 161.448C83.5669 161.447 84.0449 161.925 84.0449 162.515Z" fill="#6097B2"/>
<path d="M60.5268 184.31C60.5268 184.9 60.0488 185.376 59.4598 185.376C58.8708 185.376 58.3928 184.899 58.3928 184.31C58.3928 183.721 58.8708 183.242 59.4598 183.242C60.0488 183.242 60.5268 183.72 60.5268 184.31Z" fill="#6097B2"/>
<path d="M73.508 166.82C73.508 167.409 73.03 167.887 72.441 167.887C71.852 167.887 71.374 167.409 71.374 166.82C71.374 166.23 71.852 165.753 72.441 165.753C73.03 165.753 73.508 166.231 73.508 166.82Z" fill="#6097B2"/>
<path d="M53.092 214.878C53.092 215.468 52.614 215.945 52.025 215.945C51.435 215.945 50.958 215.467 50.958 214.878C50.958 214.289 51.436 213.811 52.025 213.811C52.614 213.811 53.092 214.289 53.092 214.878Z" fill="#6097B2"/>
<path d="M39.6838 205.453C39.6838 206.043 39.2058 206.52 38.6168 206.52C38.0278 206.52 37.5498 206.042 37.5498 205.453C37.5498 204.864 38.0278 204.385 38.6168 204.385C39.2058 204.385 39.6838 204.864 39.6838 205.453Z" fill="#6097B2"/>
<path d="M77.5018 203.317C78.0911 203.317 78.5688 202.84 78.5688 202.25C78.5688 201.661 78.0911 201.183 77.5018 201.183C76.9125 201.183 76.4348 201.661 76.4348 202.25C76.4348 202.84 76.9125 203.317 77.5018 203.317Z" fill="#6097B2"/>
<path d="M99.569 208.922C100.158 208.922 100.636 208.445 100.636 207.855C100.636 207.266 100.158 206.789 99.569 206.789C98.9797 206.789 98.502 207.266 98.502 207.855C98.502 208.445 98.9797 208.922 99.569 208.922Z" fill="#6097B2"/>
<path d="M99.5688 177.474C99.5688 178.064 99.0908 178.541 98.5018 178.541C97.9128 178.541 97.4348 178.063 97.4348 177.474C97.4348 176.885 97.9128 176.407 98.5018 176.407C99.0908 176.407 99.5688 176.885 99.5688 177.474Z" fill="#6097B2"/>
<path d="M112.398 179.712C112.398 180.302 111.92 180.78 111.331 180.78C110.742 180.78 110.264 180.301 110.264 179.712C110.264 179.123 110.742 178.646 111.331 178.646C111.92 178.646 112.398 179.123 112.398 179.712Z" fill="#6097B2"/>
<path d="M86.77 215.946C86.77 216.536 86.292 217.013 85.703 217.013C85.114 217.013 84.636 216.535 84.636 215.946C84.636 215.357 85.114 214.879 85.703 214.879C86.292 214.879 86.77 215.356 86.77 215.946Z" fill="#6097B2"/>
<path d="M76.4349 235.999C77.0242 235.999 77.5019 235.521 77.5019 234.931C77.5019 234.342 77.0242 233.865 76.4349 233.865C75.8456 233.865 75.3679 234.342 75.3679 234.931C75.3679 235.521 75.8456 235.999 76.4349 235.999Z" fill="#6097B2"/>
<path d="M60.0509 239.036C60.6402 239.036 61.1179 238.559 61.1179 237.969C61.1179 237.38 60.6402 236.902 60.0509 236.902C59.4616 236.902 58.9839 237.38 58.9839 237.969C58.9839 238.559 59.4616 239.036 60.0509 239.036Z" fill="#6097B2"/>
<path d="M105.113 222.841C105.702 222.841 106.18 222.364 106.18 221.774C106.18 221.185 105.702 220.707 105.113 220.707C104.524 220.707 104.046 221.185 104.046 221.774C104.046 222.364 104.524 222.841 105.113 222.841Z" fill="#6097B2"/>
<path d="M91.4319 229.867C91.4319 230.457 90.9539 230.934 90.3649 230.934C89.7759 230.934 89.2979 230.456 89.2979 229.867C89.2979 229.278 89.7759 228.8 90.3649 228.8C90.9539 228.8 91.4319 229.277 91.4319 229.867Z" fill="#6097B2"/>
<path d="M69.238 253.701C69.238 254.29 68.76 254.768 68.171 254.768C67.581 254.768 67.104 254.29 67.104 253.701C67.104 253.111 67.582 252.634 68.171 252.634C68.76 252.634 69.238 253.111 69.238 253.701Z" fill="#6097B2"/>
<path d="M84.6358 249.21C85.2251 249.21 85.7028 248.733 85.7028 248.143C85.7028 247.554 85.2251 247.076 84.6358 247.076C84.0466 247.076 83.5688 247.554 83.5688 248.143C83.5688 248.733 84.0466 249.21 84.6358 249.21Z" fill="#6097B2"/>
<path d="M100.497 242.922C101.086 242.922 101.564 242.445 101.564 241.855C101.564 241.266 101.086 240.789 100.497 240.789C99.9076 240.789 99.4299 241.266 99.4299 241.855C99.4299 242.445 99.9076 242.922 100.497 242.922Z" fill="#6097B2"/>
<path d="M94.4069 260.217C94.4069 260.807 93.9289 261.284 93.3399 261.284C92.7509 261.284 92.2729 260.806 92.2729 260.217C92.2729 259.628 92.7509 259.151 93.3399 259.151C93.9289 259.151 94.4069 259.627 94.4069 260.217Z" fill="#6097B2"/>
<path d="M93.24 316.425H75.709C74.565 313.161 76.675 309.886 76.32 307.01C75.709 302.147 78.54 304.834 78.54 304.834C79.04 299.605 86.39 298.617 86.312 300.948C86.19 304.379 86.856 306.499 87.833 307.92C89.809 310.773 93.051 310.751 93.606 312.794C93.662 312.994 93.706 313.194 93.739 313.371C94.283 315.925 93.24 316.425 93.24 316.425Z" fill="#164353"/>
<path d="M93.7391 313.372C90.1081 314.216 81.7371 313.117 81.4041 311.007C81.0821 308.964 85.5901 308.009 87.8321 307.92C89.8081 310.773 93.0501 310.751 93.6051 312.794C93.6621 312.994 93.7061 313.194 93.7391 313.372Z" fill="#205260"/>
<path d="M21.173 180.629C19.308 178.93 16.277 181.738 16.277 181.738C16.277 181.738 17.909 184.158 16.854 185.135C15.799 186.112 14.578 183.881 12.502 184.858C12.335 184.936 12.158 185.036 11.991 185.147C10.37 186.113 8.682 188.145 7.317 189.688C7.039 189.998 6.773 190.288 6.529 190.543C4.941 192.208 0.844998 193.184 0.0779979 188.743C-0.688002 184.302 4.308 179.095 9.793 174.31C15.278 169.525 18.819 172.367 18.819 172.367C18.819 172.367 20.062 174.377 20.062 175.631C20.062 176.874 21.172 177.497 21.794 178.685C22.417 179.863 21.173 180.629 21.173 180.629Z" fill="#164353"/>
<path d="M11.9909 185.148C10.3699 186.114 8.68191 188.146 7.31691 189.689C5.26291 190.177 3.4199 190.033 3.1309 188.101C2.4309 183.438 11.7349 177.509 10.9919 180.784C10.6149 182.428 11.2589 183.993 11.9909 185.148Z" fill="#205260"/>
<path d="M336.623 308.843C335.758 308.389 334.962 307.391 334.246 306.129C334.246 306.129 333.63 302.396 334.246 298.475C334.862 294.553 333.155 291.351 327.603 290.148C322.206 288.979 319.004 291.579 320.25 302.429L320.251 302.433C319.43 306.94 319.26 312.087 321.133 316.424H337.746C337.746 316.424 340.366 310.808 336.623 308.843Z" fill="#CFD8DC"/>
<path d="M351.197 250.364C351.197 250.364 351.197 261.189 345.091 272.291C338.873 283.597 331.186 299.113 331.186 299.113C331.186 299.113 326.064 304.11 322.81 295.833C322.81 295.833 325.107 267.017 330.381 256.469C335.653 245.923 351.197 250.364 351.197 250.364Z" fill="#FF8B66"/>
<path d="M430.858 215.113C430.858 215.113 440.753 256.723 447.047 267.699C447.047 267.699 445.599 272.291 438.784 273.679C438.784 273.679 417.258 242.037 415.87 228.714C414.481 215.39 430.858 215.113 430.858 215.113Z" fill="#FF8B66"/>
<path d="M435.643 224.894C433.012 231.233 412.683 231.578 412.683 231.578L411.129 229.291L410.718 228.692L407.543 224.007C407.543 224.007 373.858 190.966 367.296 193.741H367.285C367.096 193.83 366.908 193.93 366.73 194.063C362.222 197.283 361.8 214.925 356.471 244.535C355.96 247.344 354.828 250.619 353.973 252.884C353.873 253.128 353.784 253.362 353.695 253.584C353.207 254.839 352.862 255.638 352.862 255.638C332.3 263.965 325.516 247.511 325.516 247.511C325.516 247.511 325.76 247.034 326.115 246.268C326.193 246.101 326.282 245.913 326.37 245.713C327.447 243.337 329.168 239.218 329.146 237.042C329.124 234.655 329.102 232.357 329.091 230.147C329.091 229.947 329.091 229.758 329.08 229.57C329.047 222.453 329.058 216.269 329.102 210.896V210.33C329.124 207.987 329.158 205.8 329.202 203.757V203.18C329.38 193.821 329.679 187.57 330.001 183.406C330.012 183.217 330.034 183.017 330.046 182.84C330.612 175.834 331.212 175.146 331.212 175.146L327.093 146.512H372.036C372.036 146.512 378.786 153.273 387.546 162.2C387.735 162.378 387.912 162.555 388.09 162.744C391.265 165.975 394.696 169.483 398.138 173.047C398.282 173.191 398.415 173.324 398.538 173.458C399.893 174.857 401.247 176.256 402.59 177.644C402.757 177.81 402.912 177.988 403.079 178.155C407.587 182.829 411.961 187.437 415.703 191.467C415.836 191.6 415.958 191.734 416.081 191.867C421.199 197.407 425.096 201.837 426.44 203.902C430.004 209.353 432.779 216.448 434.312 220.833C434.312 220.833 434.312 220.833 434.312 220.844C434.39 221.044 434.456 221.222 434.523 221.41C435.243 223.54 435.643 224.894 435.643 224.894Z" fill="#8B383E"/>
<path d="M337.94 179.429C336.108 181.594 333.443 182.926 330.002 183.404C330.013 183.215 330.035 183.015 330.047 182.838C333.289 182.372 335.798 181.106 337.519 179.063C340.605 175.421 340.106 170.503 340.095 170.459L340.65 170.392C340.671 170.603 341.182 175.599 337.94 179.429Z" fill="#662C33"/>
<path d="M388.091 162.742C387.913 162.753 387.747 162.764 387.569 162.764C382.573 162.764 377.355 157.302 377.088 157.024L377.488 156.635C377.555 156.713 382.751 162.153 387.547 162.197C387.735 162.376 387.913 162.553 388.091 162.742Z" fill="#662C33"/>
<path d="M353.972 252.884C353.872 253.128 353.783 253.362 353.694 253.584C350.363 254.805 347.31 255.305 344.523 255.305C335.641 255.305 329.49 250.164 326.115 246.267C326.193 246.1 326.282 245.912 326.37 245.712C330.69 250.774 339.917 258.246 353.972 252.884Z" fill="#662C33"/>
<path d="M366.041 183.426C366.785 186.612 367.262 190.088 367.284 193.74C367.095 193.829 366.907 193.929 366.729 194.062C366.707 177.297 357.003 164.218 356.892 164.074L357.336 163.741C357.425 163.852 363.176 171.624 365.896 182.849C367.028 182.105 367.795 181.039 368.116 179.663C369.515 173.779 363.153 164.164 363.098 164.064L363.553 163.753C363.819 164.164 370.104 173.668 368.66 179.785C368.284 181.383 367.395 182.593 366.041 183.426Z" fill="#662C33"/>
<path d="M416.08 191.864C414.426 193.663 412.871 195.195 412.727 195.328L412.427 195.628L412.283 195.228C410.107 189.532 396.118 177.186 395.973 177.064L395.806 176.908L398.138 173.044C398.282 173.188 398.415 173.321 398.538 173.455L396.584 176.697C399.304 177.641 401.236 177.807 402.59 177.641C402.757 177.807 402.912 177.985 403.079 178.152C402.624 178.23 402.135 178.274 401.625 178.274C400.37 178.274 398.938 178.019 397.328 177.53C400.503 180.394 410.374 189.543 412.639 194.639C413.516 193.773 414.626 192.63 415.703 191.464C415.836 191.598 415.958 191.731 416.08 191.864Z" fill="#662C33"/>
<path d="M339.317 230.046L339.095 230.09C338.884 230.146 336.364 230.667 333.466 230.667C332.012 230.667 330.479 230.534 329.092 230.145C329.092 229.945 329.092 229.756 329.081 229.568C332.745 230.623 337.641 229.812 338.751 229.601L337.819 206.497C337.297 207.763 336.265 209.495 334.333 210.449C333.411 210.915 332.379 211.137 331.247 211.137C330.57 211.137 329.859 211.059 329.104 210.893V210.327C331.025 210.771 332.69 210.649 334.078 209.949C336.432 208.783 337.364 206.285 337.653 205.297C335.799 205.574 332.057 204.631 329.204 203.754V203.177C332.279 204.11 336.443 205.187 337.942 204.665L338.297 204.543L339.317 230.046Z" fill="#662C33"/>
<path d="M434.521 221.408C431.29 224.594 424.673 229.468 414.492 229.468C413.415 229.468 412.294 229.413 411.128 229.29L410.717 228.691C423.096 230.112 430.857 224.305 434.31 220.841C434.388 221.042 434.455 221.219 434.521 221.408Z" fill="#662C33"/>
<path d="M380.341 24.7735C380.341 24.7735 379.106 21.9295 373.888 21.9285C369.867 21.9275 368.328 24.1485 368.328 24.1485C365.922 31.1805 363.337 58.1035 362.411 59.0615C361.942 59.5475 332.115 79.6355 332.115 79.6355C348.301 79.9385 358.4 99.8905 358.4 99.8905C358.923 93.3345 377.203 67.3545 377.399 65.0375C377.77 60.6685 385.503 41.1505 380.341 24.7735Z" fill="#CE364C"/>
<path d="M328.561 165.548C328.561 165.548 328.411 171.165 330.228 171.535C332.045 171.905 346.848 176.281 363.872 168.543C380.896 160.804 383.857 155.067 378.86 150.811C373.864 146.555 328.561 165.548 328.561 165.548Z" fill="#CE364C"/>
<path d="M321.74 83.5235C321.74 83.5235 306.251 81.6885 297.369 85.5325C297.369 85.5325 294.892 96.5245 307.094 121.122C319.296 145.721 316.466 161.214 330.228 167.046C342.428 172.217 378.398 156.83 379.528 151.727C382.372 138.881 360.376 116.336 358.988 103.272C357.6 90.2095 344.832 70.5685 321.74 83.5235Z" fill="#F24052"/>
<path d="M297.369 85.5325C286.544 89.3765 274.366 101.53 274.349 107.388C274.332 113.246 284.506 115.505 284.506 115.505L301.187 107.388C301.187 107.388 305.958 104.057 302.921 94.3475C299.883 84.6385 297.369 85.5325 297.369 85.5325Z" fill="#CE364C"/>
<path d="M341.847 96.3645C338.613 96.3645 334.601 95.1995 332.108 93.4225C330.734 92.4435 329.915 91.3395 329.738 90.2285C329.126 86.3835 332.87 84.4285 333.031 84.3475L333.535 85.3355C333.405 85.4025 330.352 87.0125 330.835 90.0535C330.963 90.8635 331.627 91.7155 332.752 92.5175C335.543 94.5075 340.37 95.6745 343.513 95.1205C344.929 94.8705 345.856 94.3605 346.267 93.6065C346.77 92.6835 346.341 91.6395 346.336 91.6285L347.356 91.1895C347.383 91.2515 348.003 92.7215 347.249 94.1225C346.671 95.1955 345.479 95.8985 343.706 96.2115C343.132 96.3155 342.505 96.3645 341.847 96.3645Z" fill="#CFD8DC"/>
<path d="M328.12 108.079C325.725 108.079 321.748 107.08 321.191 103.148C320.907 101.147 321.09 99.4785 321.251 98.0065C321.488 95.8385 321.676 94.1255 320.413 92.0735C318.327 88.6865 315.487 88.4585 315.367 88.4505L315.434 87.3425C315.576 87.3505 318.954 87.5895 321.358 91.4915C322.821 93.8685 322.594 95.9375 322.354 98.1275C322.193 99.6035 322.026 101.129 322.29 102.992C322.892 107.235 328.3 106.969 328.529 106.957L328.595 108.065C328.445 108.074 328.286 108.079 328.12 108.079Z" fill="#CFD8DC"/>
<path d="M331.49 88.1535C331.49 88.1535 339.678 82.5765 337.735 76.5395C335.792 70.5025 309.424 70.9185 302.623 78.1355C295.823 85.3525 317.334 90.1425 317.334 90.1425C318.999 86.7865 329.639 86.4165 331.49 88.1535Z" fill="#CE364C"/>
<path d="M316.768 87.2085C312.883 85.8895 310.579 83.0855 311.412 79.8465C312.245 76.6085 328.948 76.5225 332.115 79.1095C335.283 81.6975 330.821 91.9795 316.768 87.2085Z" fill="#A02E44"/>
<path d="M314.919 78.1075C314.919 78.1075 318.356 83.9795 316.768 87.2085C316.768 87.2085 328.56 91.2795 328.56 84.6815C328.56 84.6815 326.338 79.7365 327.175 76.5395L314.919 78.1075Z" fill="#EF6E4B"/>
<path d="M310.987 72.9784C310.987 72.9784 305.193 63.6994 305.73 54.8354C305.999 50.4034 308.278 48.6674 308.278 48.6674C308.278 48.6674 306.438 46.1094 308.41 42.2004C308.41 42.2004 311.139 45.3584 320.717 44.3624C329.953 43.4024 330.874 49.9864 330.874 49.9864C337.476 50.9674 333.022 70.9374 328.415 72.9794L310.987 72.9784Z" fill="#FFB878"/>
<path d="M308.529 64.4104C308.529 64.4104 305.199 61.0874 304.789 64.9724C304.314 69.4734 308.402 71.2864 309.201 69.8544C309.999 68.4224 308.529 64.4104 308.529 64.4104Z" fill="#FF8B66"/>
<path d="M331.848 64.6444C331.848 64.6444 335.178 61.3214 335.588 65.2064C336.063 69.7074 331.975 71.5204 331.176 70.0884C330.377 68.6574 331.848 64.6444 331.848 64.6444Z" fill="#FF8B66"/>
<path d="M319.837 80.7135C312.448 80.7135 308.278 75.8865 308.278 61.4115C308.278 53.9445 312.077 49.3645 320.354 49.3645C328.63 49.3645 332.116 53.9445 332.116 61.4115C332.116 76.9655 327.471 80.7135 319.837 80.7135Z" fill="#FF8B66"/>
<path d="M329.669 66.5735C329.799 67.3165 329.151 68.0495 328.222 68.2115C327.294 68.3735 326.435 67.9025 326.306 67.1605C326.177 66.4175 326.824 65.6845 327.753 65.5225C328.681 65.3605 329.539 65.8315 329.669 66.5735Z" fill="#DB614D"/>
<path d="M314.47 66.9784C314.421 67.7304 313.618 68.2904 312.678 68.2294C311.737 68.1684 311.014 67.5084 311.063 66.7564C311.112 66.0044 311.914 65.4434 312.855 65.5054C313.797 65.5664 314.519 66.2254 314.47 66.9784Z" fill="#DB614D"/>
<path d="M326.415 58.8125C326.318 58.8275 326.217 58.8045 326.134 58.7405C324.958 57.8365 323.193 58.1565 323.166 58.1605C322.969 58.1925 322.773 58.0665 322.736 57.8655C322.697 57.6645 322.83 57.4725 323.031 57.4345C323.108 57.4175 325.149 57.0515 326.584 58.1555C326.746 58.2795 326.776 58.5115 326.652 58.6735C326.591 58.7515 326.505 58.7985 326.415 58.8125Z" fill="#FFB878"/>
<path d="M312.273 58.8635C312.182 58.8525 312.096 58.8075 312.033 58.7315C311.904 58.5735 311.927 58.3405 312.084 58.2115C313.484 57.0645 315.534 57.3685 315.613 57.3825C315.814 57.4145 315.952 57.6025 315.921 57.8035C315.89 58.0055 315.693 58.1395 315.5 58.1125C315.487 58.1075 313.689 57.8515 312.553 58.7835C312.47 58.8495 312.369 58.8755 312.273 58.8635Z" fill="#FFB878"/>
<path d="M325.651 62.9834C325.651 63.9004 325.238 64.6454 324.728 64.6444C324.218 64.6444 323.805 63.9004 323.805 62.9834C323.805 62.0654 324.218 61.3214 324.728 61.3214C325.238 61.3214 325.651 62.0654 325.651 62.9834Z" fill="#1A4850"/>
<path d="M315.783 62.9834C315.783 63.9004 315.37 64.6454 314.86 64.6444C314.35 64.6444 313.937 63.9004 313.937 62.9834C313.937 62.0654 314.35 61.3214 314.86 61.3214C315.37 61.3214 315.783 62.0654 315.783 62.9834Z" fill="#1A4850"/>
<path d="M310.545 50.9674C310.545 50.9674 318.42 53.8504 329.709 53.0394C329.709 53.0394 332.116 56.0394 331.824 66.6264C331.824 66.6264 338.435 47.5564 319.137 47.5564C299.839 47.5564 308.533 66.2034 308.533 66.2034C308.533 66.2034 306.955 54.5404 310.545 50.9674Z" fill="#FFB878"/>
<path d="M320.305 67.9174L319.752 67.3604L321.214 65.9084C319.797 63.9044 319.804 59.2674 319.806 59.0604L320.591 59.0644C320.591 59.1144 320.583 64.1034 322.03 65.6714L322.287 65.9494L320.305 67.9174Z" fill="#DB614D"/>
<path d="M315.401 70.3344C315.401 70.3344 322.674 70.6414 326.345 69.6704C326.345 69.6704 326.994 74.9594 321.358 75.2214C315.401 75.4984 315.401 70.3344 315.401 70.3344Z" fill="#1A4850"/>
<path d="M346.478 90.3285C347.866 90.0705 347.727 93.7025 346.478 92.6495C345.229 91.5975 345.09 90.5865 346.478 90.3285Z" fill="#CFD8DC"/>
<path d="M329.742 107.927C329.531 109.323 326.145 108.001 327.549 107.166C328.952 106.331 329.953 106.531 329.742 107.927Z" fill="#CFD8DC"/>
<path d="M314.845 115.505C314.845 115.505 312.641 121.157 312.767 124.35C312.893 127.543 313.937 127.126 313.937 127.126C313.937 127.126 312.266 127.784 311.949 129.624C311.633 131.464 316.279 132.816 316.598 132.816C316.917 132.816 320.196 131.566 320.196 131.566L320.883 121.124L317.98 119.301L314.845 115.505Z" fill="#EF6E4B"/>
<path d="M316.598 114.774C316.598 114.774 320.61 117.272 322.164 118.799C323.718 120.326 322.831 132.122 322.164 132.677C321.497 133.232 316.382 134.377 315.401 133.735C314.42 133.093 315.783 129.624 315.783 129.624C315.783 129.624 318.352 129.069 317.981 130.04C317.611 131.012 317.981 131.844 317.981 131.844L319.036 131.428C319.036 131.428 318.518 128.791 319.036 126.848C319.554 124.905 315.419 122.856 314.919 119.301C314.419 115.745 316.598 114.774 316.598 114.774Z" fill="#FF8B66"/>
<path d="M275.015 109.026C273.73 103.479 279.236 101.516 286.895 102.462C295.777 103.559 314.017 105.882 317.982 115.505C317.982 115.505 319.277 119.3 315.926 121.123C306.556 126.219 277.427 119.445 275.015 109.026Z" fill="#CE364C"/>
<path d="M302.8 105.351C302.8 105.351 292.215 100.954 286.941 100.508C281.667 100.063 294.233 104.671 302.8 105.351Z" fill="#A02E44"/>
<path d="M382.151 10.0495C381.352 10.9595 380.03 14.5015 380.03 14.5015C379.475 17.4765 379.153 19.1205 378.109 20.4855C377.076 21.8515 377.62 24.2605 377.62 24.2605C377.62 24.2605 373.579 26.3365 370.181 23.7715C370.181 23.7715 370.536 21.3845 370.181 20.7075C369.482 19.3535 367.239 18.6315 366.473 15.9005C365.707 13.1585 363.409 10.1045 363.409 10.1045C363.409 10.1045 364.064 8.68347 365.263 9.54947C366.473 10.4265 367.239 12.6135 367.894 12.8355C368.027 12.8795 368.161 12.9135 368.294 12.9245C368.294 12.9245 368.305 12.9245 368.327 12.9355C368.827 13.0025 369.337 12.8915 369.648 12.5915C369.67 12.5805 369.704 12.5585 369.726 12.5245C370.825 11.2475 371.081 7.49446 371.036 5.81846C370.969 3.48746 371.058 0.267468 372.479 0.811468C373.9 1.35547 372.601 2.65447 373.7 7.79547L374.233 7.86247C374.333 8.22847 375.31 4.74247 375.543 1.46747C375.71 -0.786533 377.186 0.0464681 377.508 0.756468C377.841 1.46747 377.341 3.70947 377.242 5.34147C377.164 6.41847 377.075 7.53946 377.02 8.20646L377.642 8.55047C379.885 4.64247 379.119 3.02146 380.429 2.94346C381.728 2.86546 381.262 6.16347 380.562 7.41747C380.262 7.96147 379.974 9.09347 379.74 10.2045C382.038 7.55047 381.783 6.16347 382.838 6.32947C383.927 6.50747 382.95 9.13847 382.151 10.0495Z" fill="#FF8B66"/>
<path d="M372.225 16.1664C371.448 14.0234 368.672 13.0464 368.328 12.9354C368.828 13.0024 369.338 12.8914 369.649 12.5914C372.369 13.8124 372.225 16.1664 372.225 16.1664Z" fill="#EF6E4B"/>
<path d="M323.995 300.14C323.995 300.14 322.459 297.005 323.828 295.658C325.197 294.311 326.81 296.809 329.149 296.254C331.489 295.699 332.031 294.036 332.639 296.301C333.248 298.567 332.507 305.691 323.995 300.14Z" fill="#CFD8DC"/>
<path d="M332.802 300C332.802 300 326.518 302.226 323.261 300L324.089 302.72C324.089 302.72 330.919 303.444 331.861 301.723L332.802 300Z" fill="#ADBEC4"/>
<path d="M332.717 303.38C332.717 303.38 326.964 302.582 324.188 304.01V305.359C324.188 305.359 331.689 303.608 334.114 305.359L332.717 303.38Z" fill="#ADBEC4"/>
<path d="M323.912 308.16C323.912 308.16 325.028 305.441 328.528 305.246C332.028 305.051 334.39 306.978 334.39 306.978C334.39 306.978 328.839 304.691 323.912 308.16Z" fill="#ADBEC4"/>
<path d="M472.004 270.381C460.957 285.125 445.924 287.956 445.924 287.956C441.561 284.47 441.45 280.34 441.45 280.34C441.45 280.34 437.242 276.587 436.687 274.789C436.132 272.99 440.295 267.572 442.793 268.128C444.514 268.505 445.513 269.882 445.968 270.693C443.903 266.041 445.557 264.42 448.488 264.82C451.541 265.231 448.655 265.953 450.842 268.406C450.997 268.584 451.175 268.728 451.364 268.861C451.764 269.139 452.241 269.327 452.785 269.427C453.262 269.516 453.795 269.538 454.35 269.505C454.639 269.494 454.938 269.461 455.238 269.416C455.804 269.327 456.381 269.183 456.981 268.994C457.903 268.705 458.857 268.295 459.79 267.784C463.609 265.697 465.219 264.986 468.128 265.73C471.026 266.463 470.981 268.661 470.981 268.661L472.004 270.381Z" fill="#CFD8DC"/>
<path d="M472.004 270.381C460.957 285.125 445.924 287.956 445.924 287.956C453.596 284.659 460.646 280.34 465.464 275.021C470.272 269.704 472.004 270.381 472.004 270.381Z" fill="#ADBEC4"/>
<path d="M451.364 268.86C451.764 269.138 452.241 269.326 452.785 269.426C449.865 270.014 449.654 272.624 449.654 272.624L448.411 272.224C448.677 269.093 451.153 268.871 451.364 268.86Z" fill="#ADBEC4"/>
<path d="M453.329 272.935L452.03 272.979C451.541 271.136 452.174 270.038 452.785 269.427C453.262 269.516 453.795 269.537 454.35 269.504C452.807 271.025 453.329 272.935 453.329 272.935Z" fill="#ADBEC4"/>
<path d="M456.538 272.224L455.25 272.39C454.75 271.08 454.895 270.103 455.239 269.415C455.805 269.326 456.382 269.182 456.982 268.993C455.916 270.581 456.538 272.224 456.538 272.224Z" fill="#ADBEC4"/>
<path d="M332.916 135.314C332.916 135.314 335.767 150.7 330.001 156.831C324.236 162.962 328.05 157.924 329.769 150.019C331.49 142.114 330.18 133.787 332.916 135.314Z" fill="#CE364C"/>
<path d="M359.524 128.447C359.524 128.447 368.612 131.433 373.366 139.827C373.366 139.827 367.018 126.16 359.524 128.447Z" fill="#CE364C"/>
<path d="M123.475 14.1355C124.686 14.1545 128.198 15.5525 128.198 15.5525C130.776 17.1385 132.21 18.0035 133.923 18.1465C135.628 18.2985 136.328 21.2275 136.328 21.2275C136.328 21.2275 143.053 22.6985 143.433 18.4585C143.433 18.4585 139.674 13.1375 139.41 12.4195C138.876 10.9915 139.846 8.84552 138.337 6.44352C136.819 4.03452 136.099 0.281522 136.099 0.281522C136.099 0.281522 134.606 -0.186479 134.443 1.28352C134.281 2.76952 135.387 4.80552 135.112 5.44052C135.055 5.56852 134.991 5.69052 134.91 5.79652C134.91 5.79652 134.903 5.80452 134.896 5.82852C134.61 6.24352 134.185 6.54752 133.754 6.57652C133.731 6.58552 133.692 6.59552 133.652 6.58952C131.968 6.54752 129.015 4.21652 127.803 3.05852C126.12 1.44352 123.674 -0.651477 123.123 0.766523C122.572 2.18552 124.407 2.09452 127.479 6.35952L127.171 6.79952C127.375 7.11952 124.136 5.50352 121.552 3.47752C119.77 2.08752 119.396 3.74152 119.706 4.45652C120.009 5.18052 122.007 6.31552 123.283 7.33752C124.133 8.00252 125.024 8.68952 125.555 9.09652L125.393 9.78852C120.991 8.82652 120.304 7.17052 119.367 8.08952C118.437 8.99952 121.194 10.8685 122.594 11.1925C123.198 11.3355 124.232 11.8815 125.211 12.4545C121.701 12.3765 120.844 11.2555 120.26 12.1485C119.658 13.0745 122.264 14.1165 123.475 14.1355Z" fill="#FF8B66"/>
<path d="M134.673 10.8865C133.607 8.87147 134.746 6.15847 134.895 5.82947C134.609 6.24447 134.184 6.54847 133.753 6.57747C132.831 9.41247 134.673 10.8865 134.673 10.8865Z" fill="#EF6E4B"/>
<path d="M321.331 14.1355C320.12 14.1545 316.608 15.5525 316.608 15.5525C314.03 17.1385 312.596 18.0035 310.883 18.1465C309.178 18.2985 308.478 21.2275 308.478 21.2275C308.478 21.2275 301.753 22.6985 301.373 18.4585C301.373 18.4585 305.133 13.1375 305.396 12.4195C305.93 10.9915 304.96 8.84552 306.469 6.44352C307.987 4.03452 308.707 0.281522 308.707 0.281522C308.707 0.281522 310.2 -0.186479 310.363 1.28352C310.525 2.76952 309.419 4.80552 309.694 5.44052C309.751 5.56852 309.815 5.69052 309.897 5.79652C309.897 5.79652 309.904 5.80452 309.911 5.82852C310.197 6.24352 310.622 6.54752 311.053 6.57652C311.076 6.58552 311.115 6.59552 311.155 6.58952C312.839 6.54752 315.792 4.21652 317.005 3.05852C318.688 1.44352 321.134 -0.651477 321.685 0.766523C322.236 2.18552 320.401 2.09452 317.329 6.35952L317.637 6.79952C317.433 7.11952 320.672 5.50352 323.256 3.47752C325.038 2.08752 325.412 3.74152 325.102 4.45652C324.799 5.18052 322.801 6.31552 321.525 7.33752C320.675 8.00252 319.784 8.68952 319.253 9.09652L319.415 9.78852C323.817 8.82652 324.504 7.17052 325.441 8.08952C326.371 8.99952 323.614 10.8685 322.214 11.1925C321.61 11.3355 320.576 11.8815 319.597 12.4545C323.106 12.3765 323.964 11.2555 324.548 12.1485C325.148 13.0745 322.542 14.1165 321.331 14.1355Z" fill="#FF8B66"/>
<path d="M310.133 10.8865C311.199 8.87147 310.06 6.15847 309.911 5.82947C310.197 6.24447 310.622 6.54847 311.053 6.57747C311.975 9.41247 310.133 10.8865 310.133 10.8865Z" fill="#EF6E4B"/>
<path d="M262.233 217.981L249.314 137.99L223.446 140.879L197.578 137.99L184.659 217.981L178.454 295.562C178.454 295.562 180.427 301.99 193.331 297.549C193.331 297.549 202.905 225.591 204.385 224.006C205.865 222.421 221.068 175.42 221.068 175.42H225.823C225.823 175.42 241.025 222.421 242.506 224.006C243.986 225.591 253.56 297.549 253.56 297.549C266.465 301.99 268.437 295.562 268.437 295.562L262.233 217.981Z" fill="#0E3944"/>
<path d="M215.296 60.5286C216.93 62.1186 224.969 64.9876 229.214 60.5286L232.092 63.3556C232.092 63.3556 228.81 71.0736 223.051 71.3436C217.291 71.6136 213.128 64.4766 213.128 64.4766L215.296 60.5286Z" fill="#0C476B"/>
<path d="M238.063 59.6566C247.685 55.5136 278.772 44.5026 278.772 44.5026C278.772 44.5026 299.67 18.3206 303.932 14.4346C303.932 14.4346 308.558 15.2676 309.912 21.0266C309.912 21.0266 296.455 49.8406 289.141 58.0896C281.826 66.3386 244.779 84.1796 244.779 84.1796L238.063 59.6566Z" fill="#0C476B"/>
<path d="M204.385 59.0625C207.248 57.2525 221.619 66.8665 221.619 66.8665C221.619 66.8665 240.303 56.9445 244.688 58.8665C244.688 58.8665 248.64 64.1545 250.227 77.7485C251.815 91.3425 251.92 147.284 251.92 147.284C251.92 147.284 239.358 151.728 222.367 151.728C202.997 151.728 192.576 146.173 192.576 146.173C192.576 146.173 189.119 68.7175 204.385 59.0625Z" fill="#FFB878"/>
<path d="M216.055 57.6095C216.055 57.6095 218.124 64.1185 216.055 66.6265C216.055 66.6265 218.204 71.1355 222.067 71.3355C226.53 71.5655 228.078 66.6265 228.078 66.6265C228.078 66.6265 225.718 60.3395 228.078 58.1305L216.055 57.6095Z" fill="#EF6E4B"/>
<path d="M210.896 51.2025C210.896 51.2025 206.541 42.8205 207.403 33.8625C208.265 24.9055 221.762 22.8515 230.857 27.2525C230.857 27.2525 228.157 24.6125 229.214 23.8785C230.271 23.1455 232.092 27.8395 232.092 27.8395C232.092 27.8395 234.965 26.9595 235.405 27.8395C235.845 28.7205 232.462 29.2015 232.462 29.2015C232.462 29.2015 238.331 32.4565 232.848 49.7795L210.896 51.2025Z" fill="#8B383E"/>
<path d="M210.241 45.8945C210.241 45.8945 206.994 42.6545 206.594 46.4425C206.131 50.8315 210.117 52.5995 210.896 51.2035C211.675 49.8065 210.241 45.8945 210.241 45.8945Z" fill="#FF8B66"/>
<path d="M232.979 46.1235C232.979 46.1235 236.226 42.8825 236.626 46.6715C237.089 51.0605 233.103 52.8285 232.324 51.4325C231.545 50.0355 232.979 46.1235 232.979 46.1235Z" fill="#FF8B66"/>
<path d="M221.268 61.7905C214.063 61.7905 209.997 57.0845 209.997 42.9695C209.997 35.6885 213.701 31.2225 221.772 31.2225C229.842 31.2225 233.241 35.6885 233.241 42.9695C233.241 58.1365 228.711 61.7905 221.268 61.7905Z" fill="#FF8B66"/>
<path d="M230.854 48.0035C230.981 48.7275 230.349 49.4425 229.443 49.6005C228.537 49.7585 227.701 49.2995 227.575 48.5755C227.448 47.8515 228.08 47.1365 228.986 46.9785C229.891 46.8205 230.728 47.2795 230.854 48.0035Z" fill="#DB614D"/>
<path d="M216.035 48.3985C215.987 49.1325 215.205 49.6785 214.287 49.6185C213.37 49.5585 212.665 48.9155 212.713 48.1815C212.761 47.4485 213.543 46.9015 214.461 46.9615C215.378 47.0215 216.083 47.6645 216.035 48.3985Z" fill="#DB614D"/>
<path d="M227.559 40.6795C227.464 40.6795 227.37 40.6425 227.299 40.5685C226.3 39.5215 224.552 39.5665 224.526 39.5665C224.331 39.5675 224.161 39.4165 224.155 39.2175C224.148 39.0185 224.304 38.8525 224.503 38.8465C224.58 38.8415 226.602 38.7945 227.819 40.0715C227.956 40.2155 227.951 40.4435 227.808 40.5805C227.738 40.6475 227.648 40.6795 227.559 40.6795Z" fill="#8B383E"/>
<path d="M213.993 40.6795C213.904 40.6795 213.815 40.6475 213.745 40.5805C213.601 40.4435 213.596 40.2155 213.732 40.0715C214.95 38.7935 216.969 38.8425 217.048 38.8465C217.247 38.8535 217.402 39.0195 217.396 39.2175C217.39 39.4165 217.216 39.5695 217.025 39.5665C217.012 39.5635 215.241 39.5305 214.254 40.5685C214.182 40.6425 214.088 40.6795 213.993 40.6795Z" fill="#8B383E"/>
<path d="M226.936 44.5024C226.936 45.3974 226.533 46.1224 226.036 46.1224C225.539 46.1224 225.136 45.3964 225.136 44.5024C225.136 43.6074 225.539 42.8824 226.036 42.8824C226.534 42.8824 226.936 43.6074 226.936 44.5024Z" fill="#1A4850"/>
<path d="M217.315 44.5024C217.315 45.3974 216.912 46.1224 216.415 46.1224C215.918 46.1224 215.515 45.3974 215.515 44.5024C215.515 43.6074 215.918 42.8824 216.415 42.8824C216.912 42.8824 217.315 43.6084 217.315 44.5024Z" fill="#1A4850"/>
<path d="M217.315 54.0755C217.315 54.0755 223.669 54.8935 226.937 53.3245C226.937 53.3245 225.089 57.6505 221.619 57.2625C218.148 56.8755 217.315 54.0755 217.315 54.0755Z" fill="#1A4850"/>
<path d="M232.49 47.7225C232.49 47.7225 232.265 39.8865 229.214 33.8635C229.214 33.8635 223.836 36.3495 222.652 35.7625C221.468 35.1755 223.78 33.8635 223.78 33.8635C223.78 33.8635 214.906 36.7895 214.373 36.2025C213.84 35.6155 217.314 33.8635 217.314 33.8635L211.786 35.7625C211.786 35.7625 210.082 42.8125 210.787 47.7235C210.787 47.7235 208.412 43.6245 208.118 40.7935C207.824 37.9625 209.069 29.8945 217.395 29.3075C225.722 28.7205 230.398 30.6105 232.461 34.4335C234.525 38.2555 234.269 42.9585 232.49 47.7225Z" fill="#8B383E"/>
<path d="M222.524 51.8115C221.824 51.8125 221.113 51.6305 220.898 51.5705L221.102 50.8335C221.858 51.0425 223.044 51.1665 223.303 50.8615C223.392 50.7555 223.357 50.5095 223.204 50.1865C222.163 47.9715 221.946 42.3645 221.937 42.1275L222.703 42.0995C222.705 42.1565 222.922 47.7875 223.897 49.8605C224.195 50.4925 224.191 50.9955 223.888 51.3555C223.592 51.7055 223.061 51.8115 222.524 51.8115Z" fill="#DB614D"/>
<path d="M230.496 62.5906C230.496 62.5906 243.536 103.071 244.778 136.008C244.778 136.008 249.485 137.303 254.784 130.087C260.083 122.87 256.931 65.7076 246.779 56.1896C246.779 56.1896 242.172 55.1396 230.496 62.5906Z" fill="#105E99"/>
<path d="M232.621 69.6695C232.621 69.6695 234.955 64.2465 233.918 60.5275C232.881 56.8085 229.214 60.5275 229.214 60.5275C229.214 60.5275 230.696 66.6165 232.621 69.6695Z" fill="#0C476B"/>
<path d="M206.447 59.6565C196.825 55.5135 165.738 44.5025 165.738 44.5025C165.738 44.5025 144.787 17.5565 140.525 13.6715C140.525 13.6715 135.251 16.6555 134.894 22.8315C134.894 22.8315 148.055 49.8415 155.37 58.0905C162.685 66.3395 199.732 84.1805 199.732 84.1805L206.447 59.6565Z" fill="#0C476B"/>
<path d="M214.015 62.5906C214.015 62.5906 200.975 103.071 199.733 136.008C199.733 136.008 195.026 137.303 189.727 130.087C184.428 122.87 187.58 65.7076 197.732 56.1896C197.732 56.1896 202.338 55.1396 214.015 62.5906Z" fill="#105E99"/>
<path d="M211.889 69.6695C211.889 69.6695 209.555 64.2465 210.592 60.5275C211.629 56.8085 215.296 60.5275 215.296 60.5275C215.296 60.5275 213.815 66.6165 211.889 69.6695Z" fill="#0C476B"/>
<path d="M279.94 316.424H254.049C252.239 306.132 255.126 295.829 255.126 295.829L266.961 293.797C268.038 300.303 269.337 302.869 271.136 304.19C271.147 304.19 271.147 304.19 271.147 304.19C272.457 305.145 274.022 305.456 275.977 306.133C278.209 306.91 279.386 308.32 279.974 309.852C281.14 312.894 279.94 316.424 279.94 316.424Z" fill="#662C33"/>
<path d="M279.974 309.852C273.59 310.651 259.567 312.016 260.422 308.319C261.133 305.232 267.05 304.401 271.136 304.19C271.147 304.19 271.147 304.19 271.147 304.19C272.457 305.145 274.022 305.456 275.977 306.133C278.208 306.91 279.385 308.32 279.974 309.852Z" fill="#8B383E"/>
<path d="M193.229 316.424H167.338C167.338 316.424 166.516 314.005 166.894 311.44C167.205 309.353 168.315 307.165 171.302 306.133C173.545 305.356 175.266 305.067 176.676 303.746C178.208 302.303 179.352 299.637 180.318 293.797L192.153 295.829C192.153 295.829 195.028 306.132 193.229 316.424Z" fill="#662C33"/>
<path d="M166.894 311.439C167.205 309.352 168.315 307.164 171.302 306.132C173.545 305.355 175.266 305.066 176.676 303.745C179.951 304.755 184.537 306.61 185.958 309.418C187.934 313.27 172.801 312.66 166.894 311.439Z" fill="#8B383E"/>
<path d="M379.109 314.57C379.109 315.658 378.998 316.424 378.998 316.424H347.545C347.545 315.802 347.556 315.181 347.589 314.57C347.944 306.343 350.542 299.204 350.542 299.204L358.403 295.829C359.08 299.881 360.823 302.468 363.011 304.156C363.588 304.611 364.188 304.989 364.81 305.311C365.099 305.467 365.387 305.611 365.687 305.744C366.342 306.044 367.019 306.288 367.697 306.488C370.473 307.332 373.282 307.509 375.247 307.809C378.598 308.33 379.109 312.205 379.109 314.57Z" fill="#164353"/>
<path d="M379.109 314.57C379.109 315.658 378.998 316.424 378.998 316.424H347.545C347.545 315.802 347.556 315.181 347.589 314.57H379.109Z" fill="#225866"/>
<path d="M364.808 305.31L360.445 306.709L359.523 305.11L363.009 304.155C363.587 304.611 364.187 304.988 364.808 305.31Z" fill="#225866"/>
<path d="M367.695 306.487L364.753 308.441L362.943 307.73L365.685 305.743C366.341 306.043 367.018 306.287 367.695 306.487Z" fill="#225866"/>
<path d="M258.934 314.57C258.856 315.636 258.579 316.424 258.579 316.424H237.629C237.363 315.813 237.174 315.203 237.04 314.57C234.975 304.544 248.897 292.276 248.897 292.276L253.316 298.172C253.316 298.172 252.805 307.609 256.547 309.574C258.79 310.75 259.079 312.971 258.934 314.57Z" fill="#164353"/>
<path d="M237.04 314.57H258.934C258.856 315.636 258.579 316.424 258.579 316.424H237.629C237.362 315.813 237.173 315.202 237.04 314.57Z" fill="#225866"/>
<path d="M255.59 308.822C255.59 308.822 246.763 306.81 242.739 309.415V307.958C242.739 307.958 250.163 304.35 255.59 308.822Z" fill="#225866"/>
<path d="M253.841 306.583C253.841 306.583 248.205 304.006 242.738 306.583L243.362 305.113C243.362 305.113 249.892 302.644 253.841 306.583Z" fill="#225866"/>
<path d="M369.616 225.439C369.627 233.866 362.144 302.569 362.144 302.569C354.661 303.313 348.666 301.814 348.666 301.814C346.612 266.996 346.412 237.052 346.412 237.052L310.551 210.173L310.462 210.107C310.462 210.107 310.329 210.718 310.084 211.806C308.308 219.689 300.791 252.707 297.66 260.268C294.096 268.884 255.128 305.115 255.128 305.115C247.889 304.116 241.747 298.872 241.747 298.872C255.736 275.668 274.81 252.397 274.81 252.397C276.298 244.037 277.364 225.44 277.997 211.54C278.008 211.329 278.019 211.108 278.03 210.897C278.452 201.482 278.663 194.375 278.663 194.375L272.09 180.897L313.847 165.552L323.206 177.533C323.206 177.533 325.349 179.519 328.724 182.695C328.879 182.839 329.035 182.985 329.19 183.129C341.726 194.952 369.616 221.664 369.616 225.439Z" fill="#8BBDDB"/>
<path d="M277.998 211.539C278.009 211.328 278.02 211.106 278.031 210.895C286.824 206.121 285.348 198.504 285.325 198.427L285.869 198.315C285.891 198.392 287.468 206.576 277.998 211.539Z" fill="#6097B2"/>
<path d="M309.906 204.787C310.206 206.452 310.428 208.251 310.55 210.172L310.461 210.105C310.461 210.105 310.328 210.716 310.083 211.804C309.695 198.747 304.31 191.031 304.243 190.942L304.698 190.62C304.753 190.687 308.151 195.594 309.794 204.154C316.145 198.514 309.927 186.956 309.861 186.845L310.349 186.579C310.417 186.701 317.001 198.936 309.906 204.787Z" fill="#6097B2"/>
<path d="M329.191 183.126C329.18 183.137 329.158 183.137 329.147 183.148C328.892 183.248 328.592 183.293 328.281 183.293C325.206 183.293 320.043 178.984 319.799 178.773L320.165 178.352C321.842 179.773 326.516 183.182 328.725 182.693C328.881 182.839 329.036 182.982 329.191 183.126Z" fill="#6097B2"/>
<path d="M275.015 109.026C275.015 109.026 287.717 106.982 294.081 111.039C300.445 115.096 308.801 125.685 308.801 125.685C308.801 125.685 298.88 126.995 297.757 133.734C297.757 133.734 290.551 116.572 275.015 109.026Z" fill="#ADBEC4"/>
<path d="M255.907 115.652C250.534 118.557 241.553 129.461 241.147 136.167C240.751 142.708 245.597 148.725 248.863 153.839C259.056 169.798 269.788 183.898 274.349 202.616C274.378 202.735 297.664 211.975 324.993 179.125C324.993 179.125 309.55 158.349 304.216 140.66C302.045 133.46 299.835 125.81 295.664 119.464C291.07 112.474 283.201 108.363 275.016 109.026C268.089 109.589 261.2 112.79 255.907 115.652Z" fill="#CFD8DC"/>
<path d="M253.652 108.958C253.652 108.958 257.088 114.83 255.501 118.059C255.501 118.059 267.294 122.13 267.294 115.532C267.294 115.532 265.071 110.587 265.909 107.39L253.652 108.958Z" fill="#EF6E4B"/>
<path d="M279.856 149.167C279.856 149.167 273.296 151.03 271.641 153.352C269.986 155.674 268.513 160.883 268.513 160.883H279.856L281.989 156.958L284.486 151.729L279.856 149.167Z" fill="#EF6E4B"/>
<path d="M269.012 102.409C269.012 102.409 273.617 100.477 270.638 86.6265C268.664 77.4485 265.82 76.0805 263.983 75.9995C263.983 75.9995 261.735 72.6125 253.938 74.2335C248.598 75.3445 244.337 78.5875 242.461 84.5885C240.503 90.8525 244.419 104.279 249.576 105.615L269.012 102.409Z" fill="#164353"/>
<path d="M270.101 93.0495C270.101 93.0495 273.003 89.0095 274.099 92.9915C275.369 97.6045 271.417 100.2 270.337 98.8435C269.258 97.4875 270.101 93.0495 270.101 93.0495Z" fill="#FF8B66"/>
<path d="M245.817 97.3065C245.817 97.3065 241.771 94.4135 242.012 98.5365C242.291 103.313 246.867 104.501 247.454 102.87C248.042 101.239 245.817 97.3065 245.817 97.3065Z" fill="#FF8B66"/>
<path d="M261.111 112.001C268.819 110.729 272.338 104.976 269.847 89.8765C268.562 82.0875 263.811 77.9635 255.178 79.3885C246.545 80.8125 243.697 86.1895 244.982 93.9795C247.658 110.204 253.148 113.315 261.111 112.001Z" fill="#FF8B66"/>
<path d="M248.422 98.9435C248.415 99.7405 249.217 100.395 250.214 100.404C251.211 100.413 252.025 99.7735 252.032 98.9765C252.039 98.1795 251.237 97.5255 250.24 97.5165C249.244 97.5085 248.43 98.1465 248.422 98.9435Z" fill="#DB614D"/>
<path d="M264.346 96.7505C264.526 97.5265 265.46 97.9725 266.431 97.7475C267.402 97.5215 268.042 96.7095 267.862 95.9325C267.681 95.1565 266.748 94.7095 265.777 94.9355C264.806 95.1615 264.165 95.9735 264.346 96.7505Z" fill="#DB614D"/>
<path d="M250.592 90.5325C250.516 90.5325 250.439 90.5105 250.372 90.4645C250.194 90.3435 250.148 90.1005 250.269 89.9225C251.347 88.3415 253.51 88.0385 253.602 88.0255C253.829 88.0005 254.011 88.1485 254.04 88.3605C254.068 88.5745 253.919 88.7705 253.705 88.7995C253.685 88.8015 251.792 89.0725 250.915 90.3615C250.839 90.4735 250.716 90.5325 250.592 90.5325Z" fill="#1A4850"/>
<path d="M265.104 88.1385C265.022 88.1385 264.939 88.1135 264.869 88.0595C263.621 87.1175 261.746 87.4725 261.728 87.4765C261.513 87.5235 261.312 87.3815 261.269 87.1695C261.227 86.9585 261.364 86.7525 261.576 86.7105C261.666 86.6935 263.812 86.2835 265.339 87.4355C265.511 87.5655 265.545 87.8105 265.416 87.9825C265.339 88.0845 265.222 88.1385 265.104 88.1385Z" fill="#1A4850"/>
<path d="M251.996 94.5065C252.154 95.4635 252.713 96.1695 253.245 96.0815C253.777 95.9935 254.08 95.1465 253.922 94.1895C253.764 93.2325 253.205 92.5275 252.673 92.6155C252.141 92.7025 251.838 93.5495 251.996 94.5065Z" fill="#1A4850"/>
<path d="M262.289 92.8085C262.447 93.7655 263.006 94.4705 263.538 94.3825C264.07 94.2945 264.373 93.4475 264.215 92.4905C264.057 91.5335 263.498 90.8285 262.966 90.9165C262.434 91.0045 262.131 91.8515 262.289 92.8085Z" fill="#1A4850"/>
<path d="M265.179 101.5C265.179 101.5 258.493 103.294 254.784 102.581C254.784 102.581 257.347 105.809 261.007 104.878C264.666 103.948 265.179 101.5 265.179 101.5Z" fill="#1A4850"/>
<path d="M265.495 82.8695C265.495 82.8695 256.795 89.1685 245.875 89.6485L246.184 99.3695C246.184 99.3695 236.006 80.6155 256.137 77.2945C276.267 73.9735 270.408 94.9205 270.408 94.9205C270.408 94.9205 269.783 85.8855 265.495 82.8695Z" fill="#0E3944"/>
<path d="M258.379 98.8875L258.324 98.0475C258.336 98.0465 259.497 97.9565 259.799 97.2375C259.924 96.9415 259.429 95.9975 258.992 95.1655C258.386 94.0085 257.632 92.5695 257.311 90.9705L258.137 90.8045C258.433 92.2855 259.156 93.6655 259.737 94.7745C260.384 96.0095 260.852 96.9015 260.574 97.5635C260.07 98.7645 258.448 98.8835 258.379 98.8875Z" fill="#DB614D"/>
<path d="M270.215 82.8935C255.582 76.5425 241.77 89.7105 241.77 89.7105C241.77 89.7105 240.16 79.0405 242.98 76.5425C243.713 75.8875 244.501 75.3105 245.323 74.7995C251.785 70.7245 260.378 70.8025 264.319 72.2015C265.129 72.4905 265.751 72.8345 266.107 73.2005C268.438 75.6205 270.215 82.8935 270.215 82.8935Z" fill="#CE364C"/>
<path d="M268.438 80.5165C268.438 80.5165 256.147 78.0855 244.69 85.6685C244.69 85.6685 243.957 78.7845 245.323 74.7995C251.785 70.7245 260.378 70.8025 264.319 72.2015C266.617 74.8215 268.438 80.5165 268.438 80.5165Z" fill="#CFD8DC"/>
<path d="M242.98 88.4555C242.98 88.4555 244.929 80.1805 247.554 77.8495C251.92 73.9725 264.19 72.6405 270.639 74.9715C277.088 77.3025 270.639 84.3485 270.639 84.3485C270.639 84.3485 260.36 76.9865 242.98 88.4555Z" fill="#A02E44"/>
<path d="M261.958 143.443C261.958 143.443 266.981 151.222 275.535 155.799C275.535 155.799 286.237 146.51 300.112 147.346C300.112 147.346 288.612 168.094 278.737 170.392C273.548 171.599 254.784 159.174 254.784 159.174C254.784 159.174 258.53 145.969 261.958 143.443Z" fill="#FF8B66"/>
<path d="M243.461 129.338C248.058 121.855 258.662 132.917 262.271 140.817C265.88 148.718 268.514 150.393 268.514 150.393C268.514 150.393 257.918 154.819 257.994 162.761C257.994 162.761 233.43 145.667 243.461 129.338Z" fill="#ADBEC4"/>
<path d="M275.535 152.381C275.535 152.381 281.989 146.049 303.211 137.785L300.47 129.165C302.904 125.961 307.38 125.961 307.38 125.961C307.38 125.961 318.253 141.315 316.381 145.901C315.213 148.766 292.534 151.772 275.535 152.381Z" fill="#EF6E4B"/>
<path d="M298.777 139.854C298.777 139.854 298.944 138.947 299.729 137.84C300.513 136.733 300.301 134.718 300.582 134.093C300.863 133.469 302.533 130.916 303.641 130.42C304.749 129.923 306.203 129.111 306.512 130.518C306.821 131.924 304.527 131.526 303.497 133.549C303.497 133.549 305.751 132.82 307.539 133.243C309.327 133.666 309.833 135.3 307.624 135.246C305.862 135.203 303.593 136.459 303.593 136.459C303.593 136.459 305.889 136.804 305.519 137.863C305.005 139.326 302.205 138.425 298.777 139.854Z" fill="#FF8B66"/>
<path d="M141.821 168.76C143.718 173.617 151.489 181.944 151.489 181.944C151.489 181.944 170.473 170.564 179.231 175.352C187.989 180.14 194.949 183.061 200.629 180.976C206.309 178.891 181.953 134.596 181.953 134.596L150.375 122.546C150.375 122.546 149.686 130.533 146.078 131.952C142.47 133.371 138.623 146.555 138.881 149.053C139.138 151.551 141.821 168.76 141.821 168.76Z" fill="#3E6575"/>
<path d="M177.351 182.233C177.351 182.233 169.208 198.195 152.397 218.637C152.397 218.637 150.674 242.946 106.218 281.193L101.564 277.532C101.564 277.532 128.039 236.061 133.334 223.346C138.63 210.631 130.407 198.981 154.769 166.82L177.351 182.233Z" fill="#EF6E4B"/>
<path d="M151.434 153.988C144.425 167.415 142.072 184.581 142.072 184.581L138.88 192.634C138.88 192.634 150.202 198.74 163.276 200.961L168.519 187.083L151.434 153.988Z" fill="#662C33"/>
<path d="M187.993 180.976C187.993 180.976 191.464 198.555 190.892 225.016C190.892 225.016 204.57 245.186 193.282 302.734H187.361C187.361 302.734 182.524 253.772 178.823 240.504C175.122 227.237 161.456 223.166 160.716 182.826L187.993 180.976Z" fill="#FF8B66"/>
<path d="M191.464 199.847C191.464 199.847 180.328 201.846 160.71 200.924L160.399 198.715L160.321 198.149L158.289 183.849C158.289 183.849 156.402 181.517 154.459 177.72C154.226 177.276 154.004 176.821 153.782 176.343C151.139 170.714 148.797 162.531 151.428 153.994L155.569 154.183L156.146 154.216L170.002 154.849L170.59 154.882L175.142 155.093L175.852 155.126L178.805 155.259C178.805 155.259 193.816 168.771 191.14 193.752L191.329 197.227L191.351 197.793L191.464 199.847Z" fill="#8B383E"/>
<path d="M156.147 154.215C155.758 155.359 153.138 163.841 154.459 177.719C154.226 177.275 154.004 176.82 153.782 176.342C152.794 163.652 155.07 155.736 155.569 154.181C155.636 153.992 155.669 153.904 155.669 153.892L156.191 154.081C156.191 154.093 156.169 154.138 156.147 154.215Z" fill="#662C33"/>
<path d="M191.353 197.793C187.412 198.803 180.728 199.081 174.377 199.081C168.681 199.081 163.274 198.848 160.399 198.715L160.321 198.149C165.306 198.393 178.429 198.904 186.889 197.982L186.345 189.044C186.478 178.619 183.325 169.715 180.283 163.564C172.578 162.165 170.457 156.458 170.002 154.848C169.935 154.593 169.902 154.437 169.902 154.426L170.446 154.337C170.446 154.348 170.49 154.548 170.59 154.881C171.09 156.546 173.155 161.509 179.961 162.93C177.907 158.922 175.964 156.18 175.143 155.092C174.899 154.759 174.743 154.57 174.732 154.559L175.154 154.204C175.176 154.226 175.432 154.537 175.853 155.125C178.429 158.622 187.122 171.779 186.9 189.021L187.444 197.914C188.921 197.736 190.242 197.514 191.33 197.226L191.353 197.793Z" fill="#662C33"/>
<path d="M162.986 93.7535C158.567 91.3195 126.724 103.807 126.724 103.807C126.724 103.807 122.013 112.21 124.95 115.505C127.887 118.8 138.306 117.347 141.498 115.505C144.69 113.663 153.145 112.269 153.145 112.269L162.986 93.7535Z" fill="#8BBDDB"/>
<path d="M191.145 67.2444C191.145 67.2444 197.723 69.7834 200.129 77.3614C202.535 84.9394 195.342 104.125 197.828 112.944C200.314 121.763 199.928 138.417 192.164 141.933C184.4 145.449 168.477 139.157 165.059 129.535C161.64 119.913 163.116 83.4594 169.687 71.0624C176.259 58.6634 189.563 64.9074 191.145 67.2444Z" fill="#F24052"/>
<path d="M183.586 99.9404C185.321 101.81 189.781 98.4774 189.781 98.4774C189.781 98.4774 189.69 115.014 184.884 116.282C180.078 117.55 167.829 103.255 168.333 99.3704C168.837 95.4834 179.739 95.7924 183.586 99.9404Z" fill="#8BBDDB"/>
<path d="M165.059 95.8044C165.059 95.8044 169.921 99.9324 178.39 101.895C186.86 103.858 191.45 99.8764 195.781 105.337C202.282 113.534 191.705 128.645 186.14 136.476C184.065 139.395 179.687 147.493 178.802 155.261C178.802 155.261 164.106 159.53 151.433 153.988L150.487 135.959C150.487 135.959 142.499 111.662 165.059 95.8044Z" fill="#0E3944"/>
<path d="M180.253 113.344C180.253 113.344 186.968 97.3414 188.913 96.3194C190.858 95.2974 195.789 97.7504 196.779 99.9394C197.769 102.128 196.779 106.903 196.779 106.903C196.779 106.903 191.483 100.859 180.253 113.344Z" fill="#8BBDDB"/>
<path d="M212.415 180.972C209.362 187.223 201.867 189.021 201.867 189.021C201.867 189.021 201.301 188.155 200.346 186.601C200.246 186.446 200.135 186.268 200.035 186.09C194.139 176.531 176.12 145.943 176.475 130.033C176.886 111.025 189.287 100.589 189.287 100.589C195.582 102.088 197.57 103.809 197.57 103.809C197.57 103.809 199.691 114.623 197.748 127.635C195.805 140.636 192.274 144.078 194.051 145.055C195.816 146.021 194.051 147.964 194.051 147.964C194.051 147.964 204.498 162.519 206.453 167.049C207.719 170.002 209.873 175.021 211.216 178.152C211.305 178.374 211.394 178.596 211.482 178.796C212.048 180.118 212.415 180.972 212.415 180.972Z" fill="#6097B2"/>
<path d="M194.268 103.807C194.268 103.807 186.788 109.352 191.146 117.824L211.88 139.289C200.5 151.415 199.372 156.394 191.146 161.984L194.268 166.82C194.268 166.82 223.078 144.678 223.121 139.289C223.139 136.982 205.523 109.074 194.268 103.807Z" fill="#FF8B66"/>
<path d="M190.691 161.986C190.691 161.986 186.739 162.424 184.25 163.047C181.761 163.669 178.443 164.291 178.339 164.81C178.235 165.328 183.835 164.81 183.835 164.81C183.835 164.81 179.272 166.684 179.169 167.406C179.066 168.128 184.976 166.884 184.976 166.884C184.976 166.884 181.243 169.165 181.45 169.787C181.657 170.409 186.256 168.854 186.256 168.854C186.256 168.854 185.401 171.031 184.514 172.068C184.514 172.068 185.405 172.557 187.212 170.55C189.019 168.542 191.905 169.187 194.19 167.406C196.474 165.624 192.771 161.718 190.691 161.986Z" fill="#FF8B66"/>
<path d="M169.504 98.4674C169.504 98.4674 163.813 102.144 160.219 111.026C156.625 119.908 145.284 136.622 142.627 140.941C139.97 145.259 141.821 168.76 141.821 168.76C141.821 168.76 138.49 154.512 137.01 148.96C135.53 143.409 141.79 129.691 142.731 128.963C143.672 128.235 148.483 129.567 147.558 123.998C146.633 118.429 159.541 94.4294 162.987 93.7534C162.987 93.7534 168.506 94.7904 169.504 98.4674Z" fill="#6097B2"/>
<path d="M151.906 99.6684C151.806 99.8574 151.695 100.046 151.562 100.223C150.274 102.077 147.876 103.554 147.876 103.554C147.876 103.554 143.535 109.638 143.491 110.338C143.447 110.938 135.952 116.378 132.622 116.267H132.611C132.156 116.256 131.778 116.134 131.512 115.889C129.536 114.024 138.24 98.3694 140.161 94.9944C140.283 94.7724 140.383 94.6054 140.45 94.4944C140.494 94.4054 140.528 94.3504 140.528 94.3504C140.528 94.3504 138.996 88.6434 145.391 89.7094C150.709 90.5864 151.764 94.8164 152.319 97.6474C152.45 98.3254 152.261 99.0134 151.906 99.6684Z" fill="#6097B2"/>
<path d="M129.576 105.584C133.969 99.8094 149.427 88.6094 157.569 85.2944L159.604 89.0784C159.604 89.0784 143.871 102.91 140.175 108.827C136.479 114.744 131.9 117.191 127.526 115.221C123.151 113.25 128.652 106.8 129.576 105.584Z" fill="#FF8B66"/>
<path d="M150.374 98.4814L149.541 99.4364L149.119 99.9244L147.742 101.501C147.742 101.501 144.278 105.698 144.411 107.385C144.511 108.595 137.838 114.013 132.62 116.267C130.499 117.188 128.612 117.588 127.513 116.955C123.738 114.779 124.582 108.24 126.725 103.81C128.59 99.9464 136.839 94.9614 138.96 93.7404C139.226 93.5734 139.393 93.4744 139.448 93.4514C139.459 93.4404 139.459 93.4404 139.459 93.4404L140.247 90.3764C140.247 90.3764 143.123 88.6444 145.388 89.7104C145.388 89.7104 140.392 89.9214 141.214 91.8644C142.058 93.8174 148.986 98.4144 150.374 98.4814Z" fill="#8BBDDB"/>
<path d="M168.515 82.4604C163.486 84.5254 164.207 89.0774 159.6 89.0774C156.747 89.0774 156.369 85.8134 156.369 85.8134C157.657 83.0264 158.478 78.2744 158.656 76.0094C158.845 73.7444 159.6 74.6214 159.6 74.6214C159.6 74.4104 159.589 74.2104 159.578 74.0104C159.511 72.4894 159.234 71.3794 160.233 72.0344C161.365 72.7674 161.754 77.0754 161.754 77.0754C162.687 70.7914 161.299 69.8584 162.387 70.4134C163.875 71.1684 163.886 76.7194 163.886 76.8864C165.085 73.2334 164.763 71.1464 165.596 71.9794C166.44 72.8234 165.174 79.5294 164.675 81.9944C164.564 82.5494 164.486 82.8934 164.486 82.8934C168.471 80.9384 168.515 82.4604 168.515 82.4604Z" fill="#FF8B66"/>
<path d="M164.674 81.9934C164.563 82.5484 164.485 82.8924 164.485 82.8924C164.485 82.8924 162.642 82.7144 161.299 84.7024C161.299 84.7024 161.676 82.0384 164.674 81.9934Z" fill="#EF6E4B"/>
<path d="M159.877 79.1294C159.91 78.5964 160.132 75.5434 159.6 74.6214C159.6 74.4104 159.589 74.2104 159.578 74.0104C160.732 74.2554 160 78.4854 159.877 79.1294Z" fill="#EF6E4B"/>
<path d="M162.998 105.616C162.998 105.616 166.397 96.4044 167.478 94.3484C168.56 92.2914 174.191 92.6444 178.453 93.4394C182.715 94.2344 183.586 99.9404 183.586 99.9404C183.586 99.9404 170.62 93.8214 162.998 105.616Z" fill="#8BBDDB"/>
<path d="M184.884 87.4864C184.884 87.4864 180.812 95.0054 180.876 103.343C180.876 103.343 174.262 107.838 171.895 102.208C171.895 102.208 174.407 94.8324 173.193 84.8754C172.381 78.2074 184.884 87.4864 184.884 87.4864Z" fill="#EF6E4B"/>
<path d="M171.896 77.0534C171.896 77.0534 170.686 72.7434 168.532 75.7734C166.037 79.2834 168.58 82.6954 169.911 81.8814C171.242 81.0674 171.896 77.0534 171.896 77.0534Z" fill="#FF8B66"/>
<path d="M191.122 88.1354C191.122 88.1354 195.435 86.9354 193.961 90.3474C192.253 94.3004 188.017 93.8954 188.023 92.3354C188.029 90.7764 191.122 88.1354 191.122 88.1354Z" fill="#FF8B66"/>
<path d="M173.661 95.8513C167.534 92.4013 166.33 86.4523 173.089 74.4493C176.575 68.2583 181.864 66.2343 188.726 70.0983C195.589 73.9633 196.34 79.3873 192.854 85.5793C185.591 98.4763 179.99 99.4153 173.661 95.8513Z" fill="#FF8B66"/>
<path d="M188.414 88.7174C188.175 89.3934 187.295 89.6994 186.449 89.4004C185.603 89.1014 185.112 88.3104 185.351 87.6334C185.59 86.9574 186.47 86.6514 187.316 86.9514C188.162 87.2504 188.653 88.0414 188.414 88.7174Z" fill="#DB614D"/>
<path d="M175.623 81.9574C175.231 82.5584 174.304 82.6484 173.553 82.1584C172.802 81.6684 172.51 80.7834 172.902 80.1834C173.294 79.5824 174.221 79.4924 174.972 79.9824C175.724 80.4714 176.015 81.3564 175.623 81.9574Z" fill="#DB614D"/>
<path d="M189.291 80.9574C189.134 80.9574 188.991 80.8514 188.951 80.6924C188.604 79.3254 187.089 78.5204 187.074 78.5134C186.902 78.4234 186.835 78.2114 186.925 78.0394C187.014 77.8674 187.225 77.8004 187.399 77.8904C187.473 77.9284 189.209 78.8523 189.632 80.5203C189.68 80.7083 189.566 80.8993 189.378 80.9473C189.348 80.9533 189.319 80.9574 189.291 80.9574Z" fill="#1A4850"/>
<path d="M180.877 74.9713C180.815 74.9713 180.753 74.9553 180.696 74.9213C180.681 74.9123 179.205 74.0353 177.858 74.4463C177.671 74.5033 177.476 74.3983 177.419 74.2123C177.363 74.0273 177.467 73.8303 177.653 73.7733C179.301 73.2683 180.989 74.2763 181.06 74.3193C181.226 74.4193 181.279 74.6353 181.178 74.8013C181.112 74.9113 180.996 74.9713 180.877 74.9713Z" fill="#1A4850"/>
<path d="M186.759 83.8654C186.33 84.6264 185.64 85.0504 185.218 84.8114C184.795 84.5734 184.8 83.7634 185.228 83.0024C185.656 82.2414 186.347 81.8174 186.769 82.0554C187.192 82.2944 187.188 83.1034 186.759 83.8654Z" fill="#1A4850"/>
<path d="M178.169 79.2574C177.741 80.0184 177.051 80.4424 176.628 80.2034C176.205 79.9654 176.21 79.1564 176.638 78.3954C177.066 77.6344 177.756 77.2104 178.179 77.4484C178.602 77.6864 178.597 78.4964 178.169 79.2574Z" fill="#1A4850"/>
<path d="M175.193 87.0694C175.193 87.0694 178.708 89.7514 181.248 89.8334C181.248 89.8334 178.547 92.0334 176.605 90.6064C174.664 89.1794 175.193 87.0694 175.193 87.0694Z" fill="#1A4850"/>
<path d="M184.912 82.3274C184.912 82.3274 186.525 80.7674 187.186 81.3164C187.846 81.8654 187.501 83.7854 187.501 83.7854L188.913 83.8214L187.746 83.3514C187.746 83.3514 188.122 81.3584 187.396 80.9454C186.362 80.3564 184.912 82.3274 184.912 82.3274Z" fill="#1A4850"/>
<path d="M178.834 79.2064C178.834 79.2064 179.331 77.0184 178.519 76.7384C177.707 76.4584 176.245 77.7494 176.245 77.7494L175.482 76.5604L176.49 77.3154C176.49 77.3154 177.999 75.9604 178.729 76.3664C179.768 76.9454 178.834 79.2064 178.834 79.2064Z" fill="#1A4850"/>
<path d="M190.353 72.6644C190.353 72.6644 188.158 69.6144 185.127 72.0364C182.096 74.4584 175.259 78.3344 171.896 77.0534C168.532 75.7734 179.254 61.4434 188.563 65.6394C197.872 69.8364 197.034 83.4964 193.162 87.8394C189.29 92.1824 191.122 88.1364 191.122 88.1364C191.122 88.1364 191.381 81.9744 192.674 77.8914C193.968 73.8074 190.353 72.6644 190.353 72.6644Z" fill="#F24052"/>
<path d="M180.035 85.6724C179.865 85.6724 179.687 85.6494 179.504 85.6034L179.691 84.8684C180.317 85.0274 180.625 84.7584 180.772 84.5054C180.981 84.1474 180.952 83.6864 180.786 83.5134C180.689 83.4124 180.524 83.4234 180.292 83.5444L179.941 82.8724C180.712 82.4684 181.173 82.8194 181.335 82.9904C181.752 83.4284 181.793 84.2614 181.427 84.8874C181.129 85.3964 180.629 85.6724 180.035 85.6724Z" fill="#DB614D"/>
<path d="M224.905 138.439C224.539 143.824 211.216 161.355 208.995 161.976C208.418 162.131 207.829 162.453 207.274 162.831C207.041 162.998 206.808 163.175 206.586 163.353C205.32 164.374 204.366 165.551 204.366 165.551C200.48 165.296 189.566 160.244 193.075 159.134C193.286 159.067 193.519 158.945 193.774 158.768C193.918 158.668 194.074 158.557 194.229 158.413C198.359 154.949 206.397 140.893 206.453 139.827C206.497 138.661 207.885 138.439 207.885 138.439C207.885 138.439 200.302 127.303 195.905 125.96C191.508 124.617 189.288 119.299 189.288 119.299C184.947 100.924 197.571 103.811 197.571 103.811C206.875 109.35 225.271 133.043 224.905 138.439Z" fill="#8BBDDB"/>
<path d="M207.274 162.831C207.041 162.998 206.808 163.175 206.586 163.353C200.624 162.942 195.628 160.011 193.774 158.768C193.918 158.668 194.074 158.557 194.229 158.413C196.216 159.711 201.301 162.609 207.274 162.831Z" fill="#3E6575"/>
<path d="M151.906 99.6684C151.806 99.8574 151.695 100.046 151.562 100.223C150.707 100.19 149.897 100.09 149.119 99.9234C145.178 99.1244 142.147 96.9144 140.159 94.9934C139.704 94.5494 139.304 94.1274 138.96 93.7384C139.226 93.5714 139.393 93.4724 139.448 93.4494C139.737 93.7714 140.07 94.1264 140.447 94.4934C142.423 96.4364 145.499 98.7014 149.54 99.4344C150.296 99.5804 151.084 99.6574 151.906 99.6684Z" fill="#3E6575"/>
<path d="M211.482 178.796C209.65 181.894 206.264 185.635 200.346 186.601C200.246 186.446 200.135 186.268 200.035 186.09C206.108 185.179 209.472 181.238 211.215 178.152C211.304 178.375 211.393 178.596 211.482 178.796Z" fill="#3E6575"/>
<path d="M110.438 279.819C110.438 279.819 109.05 281.185 107.607 283.694C106.164 286.203 107.751 288.513 100.768 294.33C100.768 294.33 86.6789 286.081 80.3169 275.478C80.3169 275.478 80.4279 272.447 83.5029 271.736C85.1569 271.358 89.7089 273.49 94.0839 274.312C94.7059 274.423 95.3269 274.523 95.9379 274.567C96.7039 274.634 97.4589 274.645 98.1809 274.556C98.8469 274.489 99.4799 274.345 100.068 274.101H100.079C101.567 273.49 102.744 272.28 103.354 270.16C103.354 270.16 107.095 272.292 104.597 275.9C104.597 275.9 109.039 273.956 110.438 279.819Z" fill="#CFD8DC"/>
<path d="M100.767 294.33C100.767 294.33 86.6779 286.081 80.3159 275.478C80.3159 275.478 82.6809 274.978 84.6349 278.487C86.5889 282.006 101.911 289.989 100.767 294.33Z" fill="#ADBEC4"/>
<path d="M100.823 277.653C99.6799 279.463 99.7019 276.121 98.1809 274.555C98.8469 274.488 99.4799 274.344 100.068 274.1H100.079C100.756 274.834 101.722 276.243 100.823 277.653Z" fill="#ADBEC4"/>
<path d="M96.393 277.753C95.183 278.897 94.794 275.91 94.084 274.311C94.706 274.422 95.327 274.522 95.938 274.566C96.648 275.533 97.315 276.876 96.393 277.753Z" fill="#ADBEC4"/>
<path d="M197.115 316.424H177.186C177.186 316.424 176.353 313.648 177.186 310.595C177.541 309.274 179.606 308.041 181.527 306.32C182.06 305.843 182.571 305.343 183.048 304.777C183.426 304.333 183.77 303.844 184.058 303.323C184.424 302.69 184.713 302.002 184.88 301.247C185.202 299.737 185.08 297.961 184.214 295.829C184.214 295.829 190.998 294.408 193.418 298.105C193.418 298.105 193.651 296.395 195.805 297.539C195.805 297.539 195.494 300.97 195.916 303.845C196.338 306.709 199.014 307.542 197.115 316.424Z" fill="#CFD8DC"/>
<path d="M191.93 304.422C191.752 304.622 191.508 304.722 191.264 304.722C191.053 304.722 190.853 304.655 190.675 304.522C189.643 303.7 187.367 302.424 184.058 303.323C184.424 302.69 184.713 302.002 184.88 301.247C186.212 300.759 188.721 300.47 191.819 303.112C192.219 303.445 192.275 304.033 191.93 304.422Z" fill="#ADBEC4"/>
<path d="M190.254 307.73L190.143 307.897C189.877 308.308 189.344 308.441 188.922 308.197C187.567 307.398 184.525 305.888 181.528 306.321C182.061 305.844 182.572 305.344 183.049 304.778C184.526 304.434 187.312 304.245 190.055 306.521C190.41 306.82 190.509 307.342 190.254 307.73Z" fill="#ADBEC4"/>
</svg>
